<svg xmlns="http://www.w3.org/2000/svg" xmlns:xlink="http://www.w3.org/1999/xlink" contentStyleType="text/css" data-diagram-type="CLASS" height="856px" preserveAspectRatio="none" style="width:780px;height:856px;background:#1B1B1B;" version="1.1" viewBox="0 0 780 856" width="780px" zoomAndPan="magnify"><defs/><g><rect fill="#1B1B1B" height="856" style="stroke:none;stroke-width:1;" width="780" x="0" y="0"/><!--class persons--><g class="entity" data-entity="persons" data-source-line="4" data-uid="ent0002" id="entity_persons"><rect fill="#313139" height="107.4844" rx="2.5" ry="2.5" style="stroke:#E7E7E7;stroke-width:0.5;" width="162.0215" x="183.59" y="7"/><text fill="#FFFFFF" font-family="sans-serif" font-size="14" lengthAdjust="spacing" textLength="55.2822" x="236.9596" y="24.9951">persons</text><line style="stroke:#E7E7E7;stroke-width:0.5;" x1="184.59" x2="344.6115" y1="33.2969" y2="33.2969"/><ellipse cx="194.59" cy="46.9453" fill="#000000" rx="3" ry="3" style="stroke:#000000;stroke-width:1;"/><text fill="#FFFFFF" font-family="sans-serif" font-size="14" lengthAdjust="spacing" textLength="136.0215" x="203.59" y="50.292">person_id : number</text><line style="stroke:#E7E7E7;stroke-width:1;" x1="184.59" x2="344.6115" y1="57.5938" y2="57.5938"/><text fill="#FFFFFF" font-family="sans-serif" font-size="14" lengthAdjust="spacing" textLength="144.4912" x="189.59" y="74.5889">name : varchar(100)</text><text fill="#FFFFFF" font-family="sans-serif" font-size="14" lengthAdjust="spacing" textLength="143.3975" x="189.59" y="90.8857">email : varchar(100)</text><text fill="#FFFFFF" font-family="sans-serif" font-size="14" lengthAdjust="spacing" textLength="139.6924" x="189.59" y="107.1826">phone : varchar(20)</text></g><!--class owners--><g class="entity" data-entity="owners" data-source-line="12" data-uid="ent0003" id="entity_owners"><rect fill="#313139" height="91.1875" rx="2.5" ry="2.5" style="stroke:#E7E7E7;stroke-width:0.5;" width="205.1016" x="162.05" y="174.48"/><text fill="#FFFFFF" font-family="sans-serif" font-size="14" lengthAdjust="spacing" textLength="50.5518" x="239.3249" y="192.4751">owners</text><line style="stroke:#E7E7E7;stroke-width:0.5;" x1="163.05" x2="366.1516" y1="200.7769" y2="200.7769"/><ellipse cx="173.05" cy="214.4253" fill="#000000" rx="3" ry="3" style="stroke:#000000;stroke-width:1;"/><text fill="#FFFFFF" font-family="sans-serif" font-size="14" lengthAdjust="spacing" textLength="131.291" x="182.05" y="217.772">owner_id : number</text><line style="stroke:#E7E7E7;stroke-width:1;" x1="163.05" x2="366.1516" y1="225.0738" y2="225.0738"/><text fill="#FFFFFF" font-family="sans-serif" font-size="14" lengthAdjust="spacing" textLength="136.0215" x="168.05" y="242.0689">person_id : number</text><text fill="#FFFFFF" font-family="sans-serif" font-size="14" lengthAdjust="spacing" textLength="193.1016" x="168.05" y="258.3657">bank_account : varchar(50)</text></g><!--class tenants--><g class="entity" data-entity="tenants" data-source-line="19" data-uid="ent0004" id="entity_tenants"><rect fill="#313139" height="91.1875" rx="2.5" ry="2.5" style="stroke:#E7E7E7;stroke-width:0.5;" width="159.9502" x="28.62" y="341.97"/><text fill="#FFFFFF" font-family="sans-serif" font-size="14" lengthAdjust="spacing" textLength="53.2109" x="81.9896" y="359.9651">tenants</text><line style="stroke:#E7E7E7;stroke-width:0.5;" x1="29.62" x2="187.5702" y1="368.2669" y2="368.2669"/><ellipse cx="39.62" cy="381.9153" fill="#000000" rx="3" ry="3" style="stroke:#000000;stroke-width:1;"/><text fill="#FFFFFF" font-family="sans-serif" font-size="14" lengthAdjust="spacing" textLength="133.9502" x="48.62" y="385.262">tenant_id : number</text><line style="stroke:#E7E7E7;stroke-width:1;" x1="29.62" x2="187.5702" y1="392.5638" y2="392.5638"/><text fill="#FFFFFF" font-family="sans-serif" font-size="14" lengthAdjust="spacing" textLength="136.0215" x="34.62" y="409.5589">person_id : number</text><text fill="#FFFFFF" font-family="sans-serif" font-size="14" lengthAdjust="spacing" textLength="143.623" x="34.62" y="425.8557">notes : varchar(255)</text></g><!--class employees--><g class="entity" data-entity="employees" data-source-line="26" data-uid="ent0005" id="entity_employees"><rect fill="#313139" height="91.1875" rx="2.5" ry="2.5" style="stroke:#E7E7E7;stroke-width:0.5;" width="183.1377" x="402.03" y="174.48"/><text fill="#FFFFFF" font-family="sans-serif" font-size="14" lengthAdjust="spacing" textLength="76.3984" x="455.3996" y="192.4751">employees</text><line style="stroke:#E7E7E7;stroke-width:0.5;" x1="403.03" x2="584.1677" y1="200.7769" y2="200.7769"/><ellipse cx="413.03" cy="214.4253" fill="#000000" rx="3" ry="3" style="stroke:#000000;stroke-width:1;"/><text fill="#FFFFFF" font-family="sans-serif" font-size="14" lengthAdjust="spacing" textLength="157.1377" x="422.03" y="217.772">employee_id : number</text><line style="stroke:#E7E7E7;stroke-width:1;" x1="403.03" x2="584.1677" y1="225.0738" y2="225.0738"/><text fill="#FFFFFF" font-family="sans-serif" font-size="14" lengthAdjust="spacing" textLength="136.0215" x="408.03" y="242.0689">person_id : number</text><text fill="#FFFFFF" font-family="sans-serif" font-size="14" lengthAdjust="spacing" textLength="122.7051" x="408.03" y="258.3657">role : varchar(50)</text></g><!--class flats--><g class="entity" data-entity="flats" data-source-line="33" data-uid="ent0006" id="entity_flats"><rect fill="#313139" height="123.7813" rx="2.5" ry="2.5" style="stroke:#E7E7E7;stroke-width:0.5;" width="172.0977" x="223.55" y="325.67"/><text fill="#FFFFFF" font-family="sans-serif" font-size="14" lengthAdjust="spacing" textLength="30.1807" x="294.5085" y="343.6651">flats</text><line style="stroke:#E7E7E7;stroke-width:0.5;" x1="224.55" x2="394.6477" y1="351.9669" y2="351.9669"/><ellipse cx="234.55" cy="365.6153" fill="#000000" rx="3" ry="3" style="stroke:#000000;stroke-width:1;"/><text fill="#FFFFFF" font-family="sans-serif" font-size="14" lengthAdjust="spacing" textLength="110.9199" x="243.55" y="368.962">flat_id : number</text><line style="stroke:#E7E7E7;stroke-width:1;" x1="224.55" x2="394.6477" y1="376.2637" y2="376.2637"/><text fill="#FFFFFF" font-family="sans-serif" font-size="14" lengthAdjust="spacing" textLength="160.0977" x="229.55" y="393.2589">address : varchar(255)</text><text fill="#FFFFFF" font-family="sans-serif" font-size="14" lengthAdjust="spacing" textLength="132.9727" x="229.55" y="409.5557">area : number(5,2)</text><text fill="#FFFFFF" font-family="sans-serif" font-size="14" lengthAdjust="spacing" textLength="131.9063" x="229.55" y="425.8526">rooms : number(2)</text><text fill="#FFFFFF" font-family="sans-serif" font-size="14" lengthAdjust="spacing" textLength="131.291" x="229.55" y="442.1495">owner_id : number</text></g><!--class contracts--><g class="entity" data-entity="contracts" data-source-line="42" data-uid="ent0007" id="entity_contracts"><rect fill="#313139" height="140.0781" rx="2.5" ry="2.5" style="stroke:#E7E7E7;stroke-width:0.5;" width="203.1943" x="7" y="509.45"/><text fill="#FFFFFF" font-family="sans-serif" font-size="14" lengthAdjust="spacing" textLength="65.4404" x="75.877" y="527.4451">contracts</text><line style="stroke:#E7E7E7;stroke-width:0.5;" x1="8" x2="209.1943" y1="535.7469" y2="535.7469"/><ellipse cx="18" cy="549.3953" fill="#000000" rx="3" ry="3" style="stroke:#000000;stroke-width:1;"/><text fill="#FFFFFF" font-family="sans-serif" font-size="14" lengthAdjust="spacing" textLength="146.1797" x="27" y="552.742">contract_id : number</text><line style="stroke:#E7E7E7;stroke-width:1;" x1="8" x2="209.1943" y1="560.0438" y2="560.0438"/><text fill="#FFFFFF" font-family="sans-serif" font-size="14" lengthAdjust="spacing" textLength="110.9199" x="13" y="577.0389">flat_id : number</text><text fill="#FFFFFF" font-family="sans-serif" font-size="14" lengthAdjust="spacing" textLength="133.9502" x="13" y="593.3357">tenant_id : number</text><text fill="#FFFFFF" font-family="sans-serif" font-size="14" lengthAdjust="spacing" textLength="116.3613" x="13" y="609.6326">start_date : date</text><text fill="#FFFFFF" font-family="sans-serif" font-size="14" lengthAdjust="spacing" textLength="110.127" x="13" y="625.9295">end_date : date</text><text fill="#FFFFFF" font-family="sans-serif" font-size="14" lengthAdjust="spacing" textLength="191.1943" x="13" y="642.2264">rent_amount : number(7,2)</text></g><!--class payments--><g class="entity" data-entity="payments" data-source-line="52" data-uid="ent0008" id="entity_payments"><rect fill="#313139" height="123.7813" rx="2.5" ry="2.5" style="stroke:#E7E7E7;stroke-width:0.5;" width="176.3975" x="20.4" y="717.68"/><text fill="#FFFFFF" font-family="sans-serif" font-size="14" lengthAdjust="spacing" textLength="69.6582" x="73.7696" y="735.6751">payments</text><line style="stroke:#E7E7E7;stroke-width:0.5;" x1="21.4" x2="195.7975" y1="743.9769" y2="743.9769"/><ellipse cx="31.4" cy="757.6253" fill="#000000" rx="3" ry="3" style="stroke:#000000;stroke-width:1;"/><text fill="#FFFFFF" font-family="sans-serif" font-size="14" lengthAdjust="spacing" textLength="150.3975" x="40.4" y="760.972">payment_id : number</text><line style="stroke:#E7E7E7;stroke-width:1;" x1="21.4" x2="195.7975" y1="768.2738" y2="768.2738"/><text fill="#FFFFFF" font-family="sans-serif" font-size="14" lengthAdjust="spacing" textLength="146.1797" x="26.4" y="785.2689">contract_id : number</text><text fill="#FFFFFF" font-family="sans-serif" font-size="14" lengthAdjust="spacing" textLength="146.1182" x="26.4" y="801.5657">payment_date : date</text><text fill="#FFFFFF" font-family="sans-serif" font-size="14" lengthAdjust="spacing" textLength="155.4629" x="26.4" y="817.8626">amount : number(7,2)</text><text fill="#FFFFFF" font-family="sans-serif" font-size="14" lengthAdjust="spacing" textLength="116.2793" x="26.4" y="834.1595">status : char(10)</text></g><!--class service_companies--><g class="entity" data-entity="service_companies" data-source-line="61" data-uid="ent0009" id="entity_service_companies"><rect fill="#313139" height="107.4844" rx="2.5" ry="2.5" style="stroke:#E7E7E7;stroke-width:0.5;" width="228.0156" x="545.59" y="525.75"/><text fill="#FFFFFF" font-family="sans-serif" font-size="14" lengthAdjust="spacing" textLength="133.1846" x="593.0055" y="543.7451">service_companies</text><line style="stroke:#E7E7E7;stroke-width:0.5;" x1="546.59" x2="772.6056" y1="552.0469" y2="552.0469"/><ellipse cx="556.59" cy="565.6953" fill="#000000" rx="3" ry="3" style="stroke:#000000;stroke-width:1;"/><text fill="#FFFFFF" font-family="sans-serif" font-size="14" lengthAdjust="spacing" textLength="152.5576" x="565.59" y="569.042">company_id : number</text><line style="stroke:#E7E7E7;stroke-width:1;" x1="546.59" x2="772.6056" y1="576.3438" y2="576.3438"/><text fill="#FFFFFF" font-family="sans-serif" font-size="14" lengthAdjust="spacing" textLength="216.0156" x="551.59" y="593.3389">company_name : varchar(100)</text><text fill="#FFFFFF" font-family="sans-serif" font-size="14" lengthAdjust="spacing" textLength="143.3975" x="551.59" y="609.6357">email : varchar(100)</text><text fill="#FFFFFF" font-family="sans-serif" font-size="14" lengthAdjust="spacing" textLength="139.6924" x="551.59" y="625.9326">phone : varchar(20)</text></g><!--class requests--><g class="entity" data-entity="requests" data-source-line="69" data-uid="ent0010" id="entity_requests"><rect fill="#313139" height="140.0781" rx="2.5" ry="2.5" style="stroke:#E7E7E7;stroke-width:0.5;" width="194.6289" x="245.28" y="509.45"/><text fill="#FFFFFF" font-family="sans-serif" font-size="14" lengthAdjust="spacing" textLength="60.8193" x="312.1848" y="527.4451">requests</text><line style="stroke:#E7E7E7;stroke-width:0.5;" x1="246.28" x2="438.9089" y1="535.7469" y2="535.7469"/><ellipse cx="256.28" cy="549.3953" fill="#000000" rx="3" ry="3" style="stroke:#000000;stroke-width:1;"/><text fill="#FFFFFF" font-family="sans-serif" font-size="14" lengthAdjust="spacing" textLength="141.5586" x="265.28" y="552.742">request_id : number</text><line style="stroke:#E7E7E7;stroke-width:1;" x1="246.28" x2="438.9089" y1="560.0438" y2="560.0438"/><text fill="#FFFFFF" font-family="sans-serif" font-size="14" lengthAdjust="spacing" textLength="110.9199" x="251.28" y="577.0389">flat_id : number</text><text fill="#FFFFFF" font-family="sans-serif" font-size="14" lengthAdjust="spacing" textLength="133.9502" x="251.28" y="593.3357">tenant_id : number</text><text fill="#FFFFFF" font-family="sans-serif" font-size="14" lengthAdjust="spacing" textLength="182.6289" x="251.28" y="609.6326">description : varchar(500)</text><text fill="#FFFFFF" font-family="sans-serif" font-size="14" lengthAdjust="spacing" textLength="137.2793" x="251.28" y="625.9295">request_date : date</text><text fill="#FFFFFF" font-family="sans-serif" font-size="14" lengthAdjust="spacing" textLength="116.2793" x="251.28" y="642.2264">status : char(15)</text></g><!--class service_actions--><g class="entity" data-entity="service_actions" data-source-line="79" data-uid="ent0011" id="entity_service_actions"><rect fill="#313139" height="140.0781" rx="2.5" ry="2.5" style="stroke:#E7E7E7;stroke-width:0.5;" width="169.1377" x="408.03" y="709.53"/><text fill="#FFFFFF" font-family="sans-serif" font-size="14" lengthAdjust="spacing" textLength="107.5361" x="438.8308" y="727.5251">service_actions</text><line style="stroke:#E7E7E7;stroke-width:0.5;" x1="409.03" x2="576.1677" y1="735.8269" y2="735.8269"/><ellipse cx="419.03" cy="749.4753" fill="#000000" rx="3" ry="3" style="stroke:#000000;stroke-width:1;"/><text fill="#FFFFFF" font-family="sans-serif" font-size="14" lengthAdjust="spacing" textLength="131.127" x="428.03" y="752.822">action_id : number</text><line style="stroke:#E7E7E7;stroke-width:1;" x1="409.03" x2="576.1677" y1="760.1238" y2="760.1238"/><text fill="#FFFFFF" font-family="sans-serif" font-size="14" lengthAdjust="spacing" textLength="141.5586" x="414.03" y="777.1189">request_id : number</text><text fill="#FFFFFF" font-family="sans-serif" font-size="14" lengthAdjust="spacing" textLength="157.1377" x="414.03" y="793.4157">employee_id : number</text><text fill="#FFFFFF" font-family="sans-serif" font-size="14" lengthAdjust="spacing" textLength="152.5576" x="414.03" y="809.7126">company_id : number</text><text fill="#FFFFFF" font-family="sans-serif" font-size="14" lengthAdjust="spacing" textLength="126.8477" x="414.03" y="826.0095">action_date : date</text><text fill="#FFFFFF" font-family="sans-serif" font-size="14" lengthAdjust="spacing" textLength="136.3291" x="414.03" y="842.3064">note : varchar(500)</text></g><!--link persons to owners--><g class="link" data-entity-1="persons" data-entity-2="owners" data-source-line="90" data-uid="lnk12" id="link_persons_owners"><path codeLine="90" d="M264.6,122.69 C264.6,142.01 264.6,137.59 264.6,156.17" fill="none" id="persons-owners" style="stroke:#E7E7E7;stroke-width:1;"/><line style="stroke:#E7E7E7;stroke-width:1;" x1="260.6" x2="268.6" y1="118.69" y2="118.69"/><line style="stroke:#E7E7E7;stroke-width:1;" x1="260.6" x2="268.6" y1="121.69" y2="121.69"/><line style="stroke:#E7E7E7;stroke-width:1;" x1="264.6" x2="264.6" y1="122.69" y2="114.69"/><line style="stroke:#E7E7E7;stroke-width:1;" x1="264.6" x2="270.6" y1="166.17" y2="174.17"/><line style="stroke:#E7E7E7;stroke-width:1;" x1="264.6" x2="258.6" y1="166.17" y2="174.17"/><line style="stroke:#E7E7E7;stroke-width:1;" x1="264.6" x2="264.6" y1="166.17" y2="174.17"/><ellipse cx="264.6" cy="160.17" fill="none" rx="4" ry="4" style="stroke:#E7E7E7;stroke-width:1;"/><text fill="#FFFFFF" font-family="sans-serif" font-size="13" lengthAdjust="spacing" textLength="10.3848" x="253.6" y="140.4969">is</text></g><!--link persons to tenants--><g class="link" data-entity-1="persons" data-entity-2="tenants" data-source-line="91" data-uid="lnk13" id="link_persons_tenants"><path codeLine="91" d="M175.44,61.61 C132,61.61 95.33,61.61 95.33,61.61 C95.33,61.61 95.33,233.7 95.33,323.55" fill="none" id="persons-tenants" style="stroke:#E7E7E7;stroke-width:1;"/><line style="stroke:#E7E7E7;stroke-width:1;" x1="179.44" x2="179.44" y1="57.61" y2="65.61"/><line style="stroke:#E7E7E7;stroke-width:1;" x1="176.44" x2="176.44" y1="57.61" y2="65.61"/><line style="stroke:#E7E7E7;stroke-width:1;" x1="175.44" x2="183.44" y1="61.61" y2="61.61"/><line style="stroke:#E7E7E7;stroke-width:1;" x1="95.33" x2="101.33" y1="333.55" y2="341.55"/><line style="stroke:#E7E7E7;stroke-width:1;" x1="95.33" x2="89.33" y1="333.55" y2="341.55"/><line style="stroke:#E7E7E7;stroke-width:1;" x1="95.33" x2="95.33" y1="333.55" y2="341.55"/><ellipse cx="95.33" cy="327.55" fill="none" rx="4" ry="4" style="stroke:#E7E7E7;stroke-width:1;"/><text fill="#FFFFFF" font-family="sans-serif" font-size="13" lengthAdjust="spacing" textLength="10.3848" x="84.33" y="153.5969">is</text></g><!--link persons to employees--><g class="link" data-entity-1="persons" data-entity-2="employees" data-source-line="92" data-uid="lnk14" id="link_persons_employees"><path codeLine="92" d="M353.98,61.61 C419.8,61.61 493.6,61.61 493.6,61.61 C493.6,61.61 493.6,109.44 493.6,156.24" fill="none" id="persons-employees" style="stroke:#E7E7E7;stroke-width:1;"/><line style="stroke:#E7E7E7;stroke-width:1;" x1="349.98" x2="349.98" y1="65.61" y2="57.61"/><line style="stroke:#E7E7E7;stroke-width:1;" x1="352.98" x2="352.98" y1="65.61" y2="57.61"/><line style="stroke:#E7E7E7;stroke-width:1;" x1="353.98" x2="345.98" y1="61.61" y2="61.61"/><line style="stroke:#E7E7E7;stroke-width:1;" x1="493.6" x2="499.6" y1="166.24" y2="174.24"/><line style="stroke:#E7E7E7;stroke-width:1;" x1="493.6" x2="487.6" y1="166.24" y2="174.24"/><line style="stroke:#E7E7E7;stroke-width:1;" x1="493.6" x2="493.6" y1="166.24" y2="174.24"/><ellipse cx="493.6" cy="160.24" fill="none" rx="4" ry="4" style="stroke:#E7E7E7;stroke-width:1;"/><text fill="#FFFFFF" font-family="sans-serif" font-size="13" lengthAdjust="spacing" textLength="10.3848" x="465.1" y="57.6769">is</text></g><!--link owners to flats--><g class="link" data-entity-1="owners" data-entity-2="flats" data-source-line="94" data-uid="lnk15" id="link_owners_flats"><path codeLine="94" d="M295.35,273.84 C295.35,292.15 295.35,287.53 295.35,307.21" fill="none" id="owners-flats" style="stroke:#E7E7E7;stroke-width:1;"/><line style="stroke:#E7E7E7;stroke-width:1;" x1="291.35" x2="299.35" y1="269.84" y2="269.84"/><line style="stroke:#E7E7E7;stroke-width:1;" x1="291.35" x2="299.35" y1="272.84" y2="272.84"/><line style="stroke:#E7E7E7;stroke-width:1;" x1="295.35" x2="295.35" y1="273.84" y2="265.84"/><line style="stroke:#E7E7E7;stroke-width:1;" x1="295.35" x2="301.35" y1="317.21" y2="325.21"/><line style="stroke:#E7E7E7;stroke-width:1;" x1="295.35" x2="289.35" y1="317.21" y2="325.21"/><line style="stroke:#E7E7E7;stroke-width:1;" x1="295.35" x2="295.35" y1="317.21" y2="325.21"/><ellipse cx="295.35" cy="311.21" fill="none" rx="4" ry="4" style="stroke:#E7E7E7;stroke-width:1;"/><text fill="#FFFFFF" font-family="sans-serif" font-size="13" lengthAdjust="spacing" textLength="33.5981" x="261.35" y="291.5969">owns</text></g><!--link flats to contracts--><g class="link" data-entity-1="flats" data-entity-2="contracts" data-source-line="95" data-uid="lnk16" id="link_flats_contracts"><path codeLine="95" d="M215.3,441.61 C201.35,441.61 199.38,441.61 199.38,441.61 C199.38,441.61 199.38,457.28 199.38,491.34" fill="none" id="flats-contracts" style="stroke:#E7E7E7;stroke-width:1;"/><line style="stroke:#E7E7E7;stroke-width:1;" x1="219.3" x2="219.3" y1="437.61" y2="445.61"/><line style="stroke:#E7E7E7;stroke-width:1;" x1="216.3" x2="216.3" y1="437.61" y2="445.61"/><line style="stroke:#E7E7E7;stroke-width:1;" x1="215.3" x2="223.3" y1="441.61" y2="441.61"/><line style="stroke:#E7E7E7;stroke-width:1;" x1="199.38" x2="205.38" y1="501.34" y2="509.34"/><line style="stroke:#E7E7E7;stroke-width:1;" x1="199.38" x2="193.38" y1="501.34" y2="509.34"/><line style="stroke:#E7E7E7;stroke-width:1;" x1="199.38" x2="199.38" y1="501.34" y2="509.34"/><ellipse cx="199.38" cy="495.34" fill="none" rx="4" ry="4" style="stroke:#E7E7E7;stroke-width:1;"/><text fill="#FFFFFF" font-family="sans-serif" font-size="13" lengthAdjust="spacing" textLength="22.9785" x="176.38" y="459.5869">has</text></g><!--link tenants to contracts--><g class="link" data-entity-1="tenants" data-entity-2="contracts" data-source-line="96" data-uid="lnk17" id="link_tenants_contracts"><path codeLine="96" d="M108.6,441.54 C108.6,464.16 108.6,465.93 108.6,491.14" fill="none" id="tenants-contracts" style="stroke:#E7E7E7;stroke-width:1;"/><line style="stroke:#E7E7E7;stroke-width:1;" x1="104.6" x2="112.6" y1="437.54" y2="437.54"/><line style="stroke:#E7E7E7;stroke-width:1;" x1="104.6" x2="112.6" y1="440.54" y2="440.54"/><line style="stroke:#E7E7E7;stroke-width:1;" x1="108.6" x2="108.6" y1="441.54" y2="433.54"/><line style="stroke:#E7E7E7;stroke-width:1;" x1="108.6" x2="114.6" y1="501.14" y2="509.14"/><line style="stroke:#E7E7E7;stroke-width:1;" x1="108.6" x2="102.6" y1="501.14" y2="509.14"/><line style="stroke:#E7E7E7;stroke-width:1;" x1="108.6" x2="108.6" y1="501.14" y2="509.14"/><ellipse cx="108.6" cy="495.14" fill="none" rx="4" ry="4" style="stroke:#E7E7E7;stroke-width:1;"/><text fill="#FFFFFF" font-family="sans-serif" font-size="13" lengthAdjust="spacing" textLength="33.6489" x="74.6" y="467.4069">signs</text></g><!--link contracts to payments--><g class="link" data-entity-1="contracts" data-entity-2="payments" data-source-line="97" data-uid="lnk18" id="link_contracts_payments"><path codeLine="97" d="M108.6,657.75 C108.6,679.82 108.6,678.02 108.6,699.48" fill="none" id="contracts-payments" style="stroke:#E7E7E7;stroke-width:1;"/><line style="stroke:#E7E7E7;stroke-width:1;" x1="104.6" x2="112.6" y1="653.75" y2="653.75"/><line style="stroke:#E7E7E7;stroke-width:1;" x1="104.6" x2="112.6" y1="656.75" y2="656.75"/><line style="stroke:#E7E7E7;stroke-width:1;" x1="108.6" x2="108.6" y1="657.75" y2="649.75"/><line style="stroke:#E7E7E7;stroke-width:1;" x1="108.6" x2="114.6" y1="709.48" y2="717.48"/><line style="stroke:#E7E7E7;stroke-width:1;" x1="108.6" x2="102.6" y1="709.48" y2="717.48"/><line style="stroke:#E7E7E7;stroke-width:1;" x1="108.6" x2="108.6" y1="709.48" y2="717.48"/><ellipse cx="108.6" cy="703.48" fill="none" rx="4" ry="4" style="stroke:#E7E7E7;stroke-width:1;"/><text fill="#FFFFFF" font-family="sans-serif" font-size="13" lengthAdjust="spacing" textLength="50.6733" x="57.6" y="679.6869">triggers</text></g><!--link flats to requests--><g class="link" data-entity-1="flats" data-entity-2="requests" data-source-line="98" data-uid="lnk19" id="link_flats_requests"><path codeLine="98" d="M320.46,457.88 C320.46,476.81 320.46,471.75 320.46,491.18" fill="none" id="flats-requests" style="stroke:#E7E7E7;stroke-width:1;"/><line style="stroke:#E7E7E7;stroke-width:1;" x1="316.46" x2="324.46" y1="453.88" y2="453.88"/><line style="stroke:#E7E7E7;stroke-width:1;" x1="316.46" x2="324.46" y1="456.88" y2="456.88"/><line style="stroke:#E7E7E7;stroke-width:1;" x1="320.46" x2="320.46" y1="457.88" y2="449.88"/><line style="stroke:#E7E7E7;stroke-width:1;" x1="320.46" x2="326.46" y1="501.18" y2="509.18"/><line style="stroke:#E7E7E7;stroke-width:1;" x1="320.46" x2="314.46" y1="501.18" y2="509.18"/><line style="stroke:#E7E7E7;stroke-width:1;" x1="320.46" x2="320.46" y1="501.18" y2="509.18"/><ellipse cx="320.46" cy="495.18" fill="none" rx="4" ry="4" style="stroke:#E7E7E7;stroke-width:1;"/><text fill="#FFFFFF" font-family="sans-serif" font-size="13" lengthAdjust="spacing" textLength="28.1201" x="291.46" y="475.5969">gets</text></g><!--link tenants to requests--><g class="link" data-entity-1="tenants" data-entity-2="requests" data-source-line="99" data-uid="lnk20" id="link_tenants_requests"><path codeLine="99" d="M196.99,387.61 C212.93,387.61 216.87,387.61 216.87,387.61 C216.87,387.61 216.87,579.61 216.87,579.61 C216.87,579.61 210.69,579.61 227.09,579.61" fill="none" id="tenants-requests" style="stroke:#E7E7E7;stroke-width:1;"/><line style="stroke:#E7E7E7;stroke-width:1;" x1="192.99" x2="192.99" y1="391.61" y2="383.61"/><line style="stroke:#E7E7E7;stroke-width:1;" x1="195.99" x2="195.99" y1="391.61" y2="383.61"/><line style="stroke:#E7E7E7;stroke-width:1;" x1="196.99" x2="188.99" y1="387.61" y2="387.61"/><line style="stroke:#E7E7E7;stroke-width:1;" x1="237.09" x2="245.09" y1="579.61" y2="573.61"/><line style="stroke:#E7E7E7;stroke-width:1;" x1="237.09" x2="245.09" y1="579.61" y2="585.61"/><line style="stroke:#E7E7E7;stroke-width:1;" x1="237.09" x2="245.09" y1="579.61" y2="579.61"/><ellipse cx="231.09" cy="579.61" fill="none" rx="4" ry="4" style="stroke:#E7E7E7;stroke-width:1;"/><text fill="#FFFFFF" font-family="sans-serif" font-size="13" lengthAdjust="spacing" textLength="48.3247" x="167.87" y="479.8469">creates</text></g><!--link requests to service_actions--><g class="link" data-entity-1="requests" data-entity-2="service_actions" data-source-line="100" data-uid="lnk21" id="link_requests_service_actions"><path codeLine="100" d="M423.97,657.75 C423.97,677.01 423.97,671.88 423.97,691.14" fill="none" id="requests-service_actions" style="stroke:#E7E7E7;stroke-width:1;"/><line style="stroke:#E7E7E7;stroke-width:1;" x1="419.97" x2="427.97" y1="653.75" y2="653.75"/><line style="stroke:#E7E7E7;stroke-width:1;" x1="419.97" x2="427.97" y1="656.75" y2="656.75"/><line style="stroke:#E7E7E7;stroke-width:1;" x1="423.97" x2="423.97" y1="657.75" y2="649.75"/><line style="stroke:#E7E7E7;stroke-width:1;" x1="423.97" x2="429.97" y1="701.14" y2="709.14"/><line style="stroke:#E7E7E7;stroke-width:1;" x1="423.97" x2="417.97" y1="701.14" y2="709.14"/><line style="stroke:#E7E7E7;stroke-width:1;" x1="423.97" x2="423.97" y1="701.14" y2="709.14"/><ellipse cx="423.97" cy="695.14" fill="none" rx="4" ry="4" style="stroke:#E7E7E7;stroke-width:1;"/><text fill="#FFFFFF" font-family="sans-serif" font-size="13" lengthAdjust="spacing" textLength="59.8203" x="363.97" y="675.5169">results in</text></g><!--link employees to service_actions--><g class="link" data-entity-1="employees" data-entity-2="service_actions" data-source-line="101" data-uid="lnk22" id="link_employees_service_actions"><path codeLine="101" d="M492.75,273.86 C492.75,371.6 492.75,575.2 492.75,691.47" fill="none" id="employees-service_actions" style="stroke:#E7E7E7;stroke-width:1;"/><line style="stroke:#E7E7E7;stroke-width:1;" x1="488.75" x2="496.75" y1="269.86" y2="269.86"/><line style="stroke:#E7E7E7;stroke-width:1;" x1="488.75" x2="496.75" y1="272.86" y2="272.86"/><line style="stroke:#E7E7E7;stroke-width:1;" x1="492.75" x2="492.75" y1="273.86" y2="265.86"/><line style="stroke:#E7E7E7;stroke-width:1;" x1="492.75" x2="498.75" y1="701.47" y2="709.47"/><line style="stroke:#E7E7E7;stroke-width:1;" x1="492.75" x2="486.75" y1="701.47" y2="709.47"/><line style="stroke:#E7E7E7;stroke-width:1;" x1="492.75" x2="492.75" y1="701.47" y2="709.47"/><ellipse cx="492.75" cy="695.47" fill="none" rx="4" ry="4" style="stroke:#E7E7E7;stroke-width:1;"/><text fill="#FFFFFF" font-family="sans-serif" font-size="13" lengthAdjust="spacing" textLength="51.0796" x="440.75" y="483.7369">handles</text></g><!--link service_companies to service_actions--><g class="link" data-entity-1="service_companies" data-entity-2="service_actions" data-source-line="102" data-uid="lnk23" id="link_service_companies_service_actions"><path codeLine="102" d="M561.38,641.64 C561.38,664.9 561.38,666.39 561.38,691.2" fill="none" id="service_companies-service_actions" style="stroke:#E7E7E7;stroke-width:1;"/><line style="stroke:#E7E7E7;stroke-width:1;" x1="557.38" x2="565.38" y1="637.64" y2="637.64"/><line style="stroke:#E7E7E7;stroke-width:1;" x1="557.38" x2="565.38" y1="640.64" y2="640.64"/><line style="stroke:#E7E7E7;stroke-width:1;" x1="561.38" x2="561.38" y1="641.64" y2="633.64"/><line style="stroke:#E7E7E7;stroke-width:1;" x1="561.38" x2="567.38" y1="701.2" y2="709.2"/><line style="stroke:#E7E7E7;stroke-width:1;" x1="561.38" x2="555.38" y1="701.2" y2="709.2"/><line style="stroke:#E7E7E7;stroke-width:1;" x1="561.38" x2="561.38" y1="701.2" y2="709.2"/><ellipse cx="561.38" cy="695.2" fill="none" rx="4" ry="4" style="stroke:#E7E7E7;stroke-width:1;"/><text fill="#FFFFFF" font-family="sans-serif" font-size="13" lengthAdjust="spacing" textLength="55.8784" x="505.38" y="667.4869">provides</text></g><!--SRC=[hLNRRjim37ttLmX-MJiiG5V0693Fs0yOhCp5Gcr9bUGCHhj_7sL9lif0WUqbqI4PdKEAP5hH8EF2y0uB-oga1WCzwuH4DsfaohXM5GLA9zp8Iet6AcbB1fR5Ctil6FiQG2qQTcLow5_GaFLoeGy9FPBn3eQtO1w-FpqzaXLx4DtHh5ibrz7FPFspqAlVadWczd0CvDCvnvrLzGBojGRErI3TYghQKZcK85tWYkT05i2dsQHoQDSPLTM61tlTgH4nCCqeS2NuQJQZEZpFwLS7CQFf53ZyCNS_D8r1Uv1E3eCmHpzKtvuV9sBLsyKwsOxFijB2bNG6UDGpew0fmPokZDxiarW7njKDE5yG_-MxJZOxYo4zDVIn5wBw7pwdbLODOu-f6HA8VHzGJkX94kaNMnrP2LCIRl1rZKEoaMNHt0N7cgjUWnInXGxML58FnxpGuFgVashmRK0RIvP0K1BHlxnjWvORePrGSjFjax9q_xR0kqfMsKhIQucqtdQse3s0dFHyLYS3d7-CUFbMjzyV-nn9-HVs4wbONbahj2tIClxuk5pKUzgELrOAM-wTQPtblSiAYluYNXRzONLSfsLCtW2ZRnbZyhT0xiIL2x3YvczOR35edZ2ASKRSRdxdRudcZgAG6xeZqJg0qyAY9LmMip46xP_uwllM3Xr525aMIoNEurkGJUVlFexT-O-qKNVwsxNbNm00]--></g></svg>