<svg xmlns="http://www.w3.org/2000/svg" xmlns:xlink="http://www.w3.org/1999/xlink" contentStyleType="text/css" data-diagram-type="CLASS" height="856px" preserveAspectRatio="none" style="width:780px;height:856px;background:#1B1B1B;" version="1.1" viewBox="0 0 780 856" width="780px" zoomAndPan="magnify"><defs/><g><rect fill="#1B1B1B" height="856" style="stroke:none;stroke-width:1;" width="780" x="0" y="0"/><!--class persons--><g class="entity" data-entity="persons" data-source-line="4" data-uid="ent0002" id="entity_persons"><rect fill="#313139" height="107.4844" rx="2.5" ry="2.5" style="stroke:#E7E7E7;stroke-width:0.5;" width="162.0215" x="183.59" y="7"/><text fill="#FFFFFF" font-family="sans-serif" font-size="14" lengthAdjust="spacing" textLength="55.2822" x="236.9596" y="24.9951">persons</text><line style="stroke:#E7E7E7;stroke-width:0.5;" x1="184.59" x2="344.6115" y1="33.2969" y2="33.2969"/><ellipse cx="194.59" cy="46.9453" fill="#000000" rx="3" ry="3" style="stroke:#000000;stroke-width:1;"/><text fill="#FFFFFF" font-family="sans-serif" font-size="14" lengthAdjust="spacing" textLength="136.0215" x="203.59" y="50.292">person_id : number</text><line style="stroke:#E7E7E7;stroke-width:1;" x1="184.59" x2="344.6115" y1="57.5938" y2="57.5938"/><text fill="#FFFFFF" font-family="sans-serif" font-size="14" lengthAdjust="spacing" textLength="144.4912" x="189.59" y="74.5889">name : varchar(100)</text><text fill="#FFFFFF" font-family="sans-serif" font-size="14" lengthAdjust="spacing" textLength="143.3975" x="189.59" y="90.8857">email : varchar(100)</text><text fill="#FFFFFF" font-family="sans-serif" font-size="14" lengthAdjust="spacing" textLength="139.6924" x="189.59" y="107.1826">phone : varchar(20)</text></g><!--class owners--><g class="entity" data-entity="owners" data-source-line="12" data-uid="ent0003" id="entity_owners"><rect fill="#313139" height="74.8906" rx="2.5" ry="2.5" style="stroke:#E7E7E7;stroke-width:0.5;" width="205.1016" x="162.05" y="174.48"/><text fill="#FFFFFF" font-family="sans-serif" font-size="14" lengthAdjust="spacing" textLength="50.5518" x="239.3249" y="192.4751">owners</text><line style="stroke:#E7E7E7;stroke-width:0.5;" x1="163.05" x2="366.1516" y1="200.7769" y2="200.7769"/><ellipse cx="173.05" cy="214.4253" fill="#000000" rx="3" ry="3" style="stroke:#000000;stroke-width:1;"/><text fill="#FFFFFF" font-family="sans-serif" font-size="14" lengthAdjust="spacing" textLength="131.291" x="182.05" y="217.772">owner_id : number</text><line style="stroke:#E7E7E7;stroke-width:1;" x1="163.05" x2="366.1516" y1="225.0738" y2="225.0738"/><text fill="#FFFFFF" font-family="sans-serif" font-size="14" lengthAdjust="spacing" textLength="193.1016" x="168.05" y="242.0689">bank_account : varchar(50)</text></g><!--class tenants--><g class="entity" data-entity="tenants" data-source-line="18" data-uid="ent0004" id="entity_tenants"><rect fill="#313139" height="74.8906" rx="2.5" ry="2.5" style="stroke:#E7E7E7;stroke-width:0.5;" width="159.9502" x="28.62" y="341.97"/><text fill="#FFFFFF" font-family="sans-serif" font-size="14" lengthAdjust="spacing" textLength="53.2109" x="81.9896" y="359.9651">tenants</text><line style="stroke:#E7E7E7;stroke-width:0.5;" x1="29.62" x2="187.5702" y1="368.2669" y2="368.2669"/><ellipse cx="39.62" cy="381.9153" fill="#000000" rx="3" ry="3" style="stroke:#000000;stroke-width:1;"/><text fill="#FFFFFF" font-family="sans-serif" font-size="14" lengthAdjust="spacing" textLength="133.9502" x="48.62" y="385.262">tenant_id : number</text><line style="stroke:#E7E7E7;stroke-width:1;" x1="29.62" x2="187.5702" y1="392.5638" y2="392.5638"/><text fill="#FFFFFF" font-family="sans-serif" font-size="14" lengthAdjust="spacing" textLength="143.623" x="34.62" y="409.5589">notes : varchar(255)</text></g><!--class employees--><g class="entity" data-entity="employees" data-source-line="24" data-uid="ent0005" id="entity_employees"><rect fill="#313139" height="74.8906" rx="2.5" ry="2.5" style="stroke:#E7E7E7;stroke-width:0.5;" width="183.1377" x="402.03" y="174.48"/><text fill="#FFFFFF" font-family="sans-serif" font-size="14" lengthAdjust="spacing" textLength="76.3984" x="455.3996" y="192.4751">employees</text><line style="stroke:#E7E7E7;stroke-width:0.5;" x1="403.03" x2="584.1677" y1="200.7769" y2="200.7769"/><ellipse cx="413.03" cy="214.4253" fill="#000000" rx="3" ry="3" style="stroke:#000000;stroke-width:1;"/><text fill="#FFFFFF" font-family="sans-serif" font-size="14" lengthAdjust="spacing" textLength="157.1377" x="422.03" y="217.772">employee_id : number</text><line style="stroke:#E7E7E7;stroke-width:1;" x1="403.03" x2="584.1677" y1="225.0738" y2="225.0738"/><text fill="#FFFFFF" font-family="sans-serif" font-size="14" lengthAdjust="spacing" textLength="122.7051" x="408.03" y="242.0689">role : varchar(50)</text></g><!--class flats--><g class="entity" data-entity="flats" data-source-line="30" data-uid="ent0006" id="entity_flats"><rect fill="#313139" height="140.0781" rx="2.5" ry="2.5" style="stroke:#E7E7E7;stroke-width:0.5;" width="197.7598" x="223.72" y="309.38"/><text fill="#FFFFFF" font-family="sans-serif" font-size="14" lengthAdjust="spacing" textLength="30.1807" x="307.5096" y="327.3751">flats</text><line style="stroke:#E7E7E7;stroke-width:0.5;" x1="224.72" x2="420.4798" y1="335.6769" y2="335.6769"/><ellipse cx="234.72" cy="349.3253" fill="#000000" rx="3" ry="3" style="stroke:#000000;stroke-width:1;"/><text fill="#FFFFFF" font-family="sans-serif" font-size="14" lengthAdjust="spacing" textLength="110.9199" x="243.72" y="352.672">flat_id : number</text><line style="stroke:#E7E7E7;stroke-width:1;" x1="224.72" x2="420.4798" y1="359.9738" y2="359.9738"/><text fill="#FFFFFF" font-family="sans-serif" font-size="14" lengthAdjust="spacing" textLength="160.0977" x="229.72" y="376.9689">address : varchar(255)</text><text fill="#FFFFFF" font-family="sans-serif" font-size="14" lengthAdjust="spacing" textLength="185.7598" x="229.72" y="393.2657">unit_number : number(10)</text><text fill="#FFFFFF" font-family="sans-serif" font-size="14" lengthAdjust="spacing" textLength="132.9727" x="229.72" y="409.5626">area : number(5,2)</text><text fill="#FFFFFF" font-family="sans-serif" font-size="14" lengthAdjust="spacing" textLength="131.9063" x="229.72" y="425.8595">rooms : number(2)</text><text fill="#FFFFFF" font-family="sans-serif" font-size="14" lengthAdjust="spacing" textLength="131.291" x="229.72" y="442.1564">owner_id : number</text></g><!--class contracts--><g class="entity" data-entity="contracts" data-source-line="40" data-uid="ent0007" id="entity_contracts"><rect fill="#313139" height="140.0781" rx="2.5" ry="2.5" style="stroke:#E7E7E7;stroke-width:0.5;" width="203.1943" x="7" y="509.45"/><text fill="#FFFFFF" font-family="sans-serif" font-size="14" lengthAdjust="spacing" textLength="65.4404" x="75.877" y="527.4451">contracts</text><line style="stroke:#E7E7E7;stroke-width:0.5;" x1="8" x2="209.1943" y1="535.7469" y2="535.7469"/><ellipse cx="18" cy="549.3953" fill="#000000" rx="3" ry="3" style="stroke:#000000;stroke-width:1;"/><text fill="#FFFFFF" font-family="sans-serif" font-size="14" lengthAdjust="spacing" textLength="146.1797" x="27" y="552.742">contract_id : number</text><line style="stroke:#E7E7E7;stroke-width:1;" x1="8" x2="209.1943" y1="560.0438" y2="560.0438"/><text fill="#FFFFFF" font-family="sans-serif" font-size="14" lengthAdjust="spacing" textLength="110.9199" x="13" y="577.0389">flat_id : number</text><text fill="#FFFFFF" font-family="sans-serif" font-size="14" lengthAdjust="spacing" textLength="133.9502" x="13" y="593.3357">tenant_id : number</text><text fill="#FFFFFF" font-family="sans-serif" font-size="14" lengthAdjust="spacing" textLength="116.3613" x="13" y="609.6326">start_date : date</text><text fill="#FFFFFF" font-family="sans-serif" font-size="14" lengthAdjust="spacing" textLength="110.127" x="13" y="625.9295">end_date : date</text><text fill="#FFFFFF" font-family="sans-serif" font-size="14" lengthAdjust="spacing" textLength="191.1943" x="13" y="642.2264">rent_amount : number(7,2)</text></g><!--class payments--><g class="entity" data-entity="payments" data-source-line="50" data-uid="ent0008" id="entity_payments"><rect fill="#313139" height="123.7813" rx="2.5" ry="2.5" style="stroke:#E7E7E7;stroke-width:0.5;" width="176.3975" x="20.4" y="717.68"/><text fill="#FFFFFF" font-family="sans-serif" font-size="14" lengthAdjust="spacing" textLength="69.6582" x="73.7696" y="735.6751">payments</text><line style="stroke:#E7E7E7;stroke-width:0.5;" x1="21.4" x2="195.7975" y1="743.9769" y2="743.9769"/><ellipse cx="31.4" cy="757.6253" fill="#000000" rx="3" ry="3" style="stroke:#000000;stroke-width:1;"/><text fill="#FFFFFF" font-family="sans-serif" font-size="14" lengthAdjust="spacing" textLength="150.3975" x="40.4" y="760.972">payment_id : number</text><line style="stroke:#E7E7E7;stroke-width:1;" x1="21.4" x2="195.7975" y1="768.2738" y2="768.2738"/><text fill="#FFFFFF" font-family="sans-serif" font-size="14" lengthAdjust="spacing" textLength="146.1797" x="26.4" y="785.2689">contract_id : number</text><text fill="#FFFFFF" font-family="sans-serif" font-size="14" lengthAdjust="spacing" textLength="146.1182" x="26.4" y="801.5657">payment_date : date</text><text fill="#FFFFFF" font-family="sans-serif" font-size="14" lengthAdjust="spacing" textLength="155.4629" x="26.4" y="817.8626">amount : number(7,2)</text><text fill="#FFFFFF" font-family="sans-serif" font-size="14" lengthAdjust="spacing" textLength="116.2793" x="26.4" y="834.1595">status : char(10)</text></g><!--class service_companies--><g class="entity" data-entity="service_companies" data-source-line="59" data-uid="ent0009" id="entity_service_companies"><rect fill="#313139" height="107.4844" rx="2.5" ry="2.5" style="stroke:#E7E7E7;stroke-width:0.5;" width="228.0156" x="545.59" y="525.75"/><text fill="#FFFFFF" font-family="sans-serif" font-size="14" lengthAdjust="spacing" textLength="133.1846" x="593.0055" y="543.7451">service_companies</text><line style="stroke:#E7E7E7;stroke-width:0.5;" x1="546.59" x2="772.6056" y1="552.0469" y2="552.0469"/><ellipse cx="556.59" cy="565.6953" fill="#000000" rx="3" ry="3" style="stroke:#000000;stroke-width:1;"/><text fill="#FFFFFF" font-family="sans-serif" font-size="14" lengthAdjust="spacing" textLength="152.5576" x="565.59" y="569.042">company_id : number</text><line style="stroke:#E7E7E7;stroke-width:1;" x1="546.59" x2="772.6056" y1="576.3438" y2="576.3438"/><text fill="#FFFFFF" font-family="sans-serif" font-size="14" lengthAdjust="spacing" textLength="216.0156" x="551.59" y="593.3389">company_name : varchar(100)</text><text fill="#FFFFFF" font-family="sans-serif" font-size="14" lengthAdjust="spacing" textLength="143.3975" x="551.59" y="609.6357">email : varchar(100)</text><text fill="#FFFFFF" font-family="sans-serif" font-size="14" lengthAdjust="spacing" textLength="139.6924" x="551.59" y="625.9326">phone : varchar(20)</text></g><!--class requests--><g class="entity" data-entity="requests" data-source-line="67" data-uid="ent0010" id="entity_requests"><rect fill="#313139" height="140.0781" rx="2.5" ry="2.5" style="stroke:#E7E7E7;stroke-width:0.5;" width="194.6289" x="245.28" y="509.45"/><text fill="#FFFFFF" font-family="sans-serif" font-size="14" lengthAdjust="spacing" textLength="60.8193" x="312.1848" y="527.4451">requests</text><line style="stroke:#E7E7E7;stroke-width:0.5;" x1="246.28" x2="438.9089" y1="535.7469" y2="535.7469"/><ellipse cx="256.28" cy="549.3953" fill="#000000" rx="3" ry="3" style="stroke:#000000;stroke-width:1;"/><text fill="#FFFFFF" font-family="sans-serif" font-size="14" lengthAdjust="spacing" textLength="141.5586" x="265.28" y="552.742">request_id : number</text><line style="stroke:#E7E7E7;stroke-width:1;" x1="246.28" x2="438.9089" y1="560.0438" y2="560.0438"/><text fill="#FFFFFF" font-family="sans-serif" font-size="14" lengthAdjust="spacing" textLength="110.9199" x="251.28" y="577.0389">flat_id : number</text><text fill="#FFFFFF" font-family="sans-serif" font-size="14" lengthAdjust="spacing" textLength="133.9502" x="251.28" y="593.3357">tenant_id : number</text><text fill="#FFFFFF" font-family="sans-serif" font-size="14" lengthAdjust="spacing" textLength="182.6289" x="251.28" y="609.6326">description : varchar(500)</text><text fill="#FFFFFF" font-family="sans-serif" font-size="14" lengthAdjust="spacing" textLength="137.2793" x="251.28" y="625.9295">request_date : date</text><text fill="#FFFFFF" font-family="sans-serif" font-size="14" lengthAdjust="spacing" textLength="116.2793" x="251.28" y="642.2264">status : char(15)</text></g><!--class service_actions--><g class="entity" data-entity="service_actions" data-source-line="77" data-uid="ent0011" id="entity_service_actions"><rect fill="#313139" height="140.0781" rx="2.5" ry="2.5" style="stroke:#E7E7E7;stroke-width:0.5;" width="169.1377" x="408.03" y="709.53"/><text fill="#FFFFFF" font-family="sans-serif" font-size="14" lengthAdjust="spacing" textLength="107.5361" x="438.8308" y="727.5251">service_actions</text><line style="stroke:#E7E7E7;stroke-width:0.5;" x1="409.03" x2="576.1677" y1="735.8269" y2="735.8269"/><ellipse cx="419.03" cy="749.4753" fill="#000000" rx="3" ry="3" style="stroke:#000000;stroke-width:1;"/><text fill="#FFFFFF" font-family="sans-serif" font-size="14" lengthAdjust="spacing" textLength="131.127" x="428.03" y="752.822">action_id : number</text><line style="stroke:#E7E7E7;stroke-width:1;" x1="409.03" x2="576.1677" y1="760.1238" y2="760.1238"/><text fill="#FFFFFF" font-family="sans-serif" font-size="14" lengthAdjust="spacing" textLength="141.5586" x="414.03" y="777.1189">request_id : number</text><text fill="#FFFFFF" font-family="sans-serif" font-size="14" lengthAdjust="spacing" textLength="157.1377" x="414.03" y="793.4157">employee_id : number</text><text fill="#FFFFFF" font-family="sans-serif" font-size="14" lengthAdjust="spacing" textLength="152.5576" x="414.03" y="809.7126">company_id : number</text><text fill="#FFFFFF" font-family="sans-serif" font-size="14" lengthAdjust="spacing" textLength="126.8477" x="414.03" y="826.0095">action_date : date</text><text fill="#FFFFFF" font-family="sans-serif" font-size="14" lengthAdjust="spacing" textLength="136.3291" x="414.03" y="842.3064">note : varchar(500)</text></g><!--link persons to owners--><g class="link" data-entity-1="persons" data-entity-2="owners" data-source-line="88" data-uid="lnk12" id="link_persons_owners"><path codeLine="88" d="M264.6,122.9 C264.6,142.56 264.6,148.32 264.6,166.25" fill="none" id="persons-owners" style="stroke:#E7E7E7;stroke-width:1;"/><line style="stroke:#E7E7E7;stroke-width:1;" x1="260.6" x2="268.6" y1="118.9" y2="118.9"/><line style="stroke:#E7E7E7;stroke-width:1;" x1="260.6" x2="268.6" y1="121.9" y2="121.9"/><line style="stroke:#E7E7E7;stroke-width:1;" x1="264.6" x2="264.6" y1="122.9" y2="114.9"/><line style="stroke:#E7E7E7;stroke-width:1;" x1="268.6" x2="260.6" y1="170.25" y2="170.25"/><line style="stroke:#E7E7E7;stroke-width:1;" x1="268.6" x2="260.6" y1="167.25" y2="167.25"/><line style="stroke:#E7E7E7;stroke-width:1;" x1="264.6" x2="264.6" y1="166.25" y2="174.25"/><text fill="#FFFFFF" font-family="sans-serif" font-size="13" lengthAdjust="spacing" textLength="10.3848" x="253.6" y="140.6369">is</text></g><!--link persons to tenants--><g class="link" data-entity-1="persons" data-entity-2="tenants" data-source-line="89" data-uid="lnk13" id="link_persons_tenants"><path codeLine="89" d="M175.44,61.61 C132,61.61 95.33,61.61 95.33,61.61 C95.33,61.61 95.33,249.53 95.33,333.71" fill="none" id="persons-tenants" style="stroke:#E7E7E7;stroke-width:1;"/><line style="stroke:#E7E7E7;stroke-width:1;" x1="179.44" x2="179.44" y1="57.61" y2="65.61"/><line style="stroke:#E7E7E7;stroke-width:1;" x1="176.44" x2="176.44" y1="57.61" y2="65.61"/><line style="stroke:#E7E7E7;stroke-width:1;" x1="175.44" x2="183.44" y1="61.61" y2="61.61"/><line style="stroke:#E7E7E7;stroke-width:1;" x1="99.33" x2="91.33" y1="337.71" y2="337.71"/><line style="stroke:#E7E7E7;stroke-width:1;" x1="99.33" x2="91.33" y1="334.71" y2="334.71"/><line style="stroke:#E7E7E7;stroke-width:1;" x1="95.33" x2="95.33" y1="333.71" y2="341.71"/><text fill="#FFFFFF" font-family="sans-serif" font-size="13" lengthAdjust="spacing" textLength="10.3848" x="84.33" y="153.6769">is</text></g><!--link persons to employees--><g class="link" data-entity-1="persons" data-entity-2="employees" data-source-line="90" data-uid="lnk14" id="link_persons_employees"><path codeLine="90" d="M353.98,61.61 C419.8,61.61 493.6,61.61 493.6,61.61 C493.6,61.61 493.6,121.47 493.6,166" fill="none" id="persons-employees" style="stroke:#E7E7E7;stroke-width:1;"/><line style="stroke:#E7E7E7;stroke-width:1;" x1="349.98" x2="349.98" y1="65.61" y2="57.61"/><line style="stroke:#E7E7E7;stroke-width:1;" x1="352.98" x2="352.98" y1="65.61" y2="57.61"/><line style="stroke:#E7E7E7;stroke-width:1;" x1="353.98" x2="345.98" y1="61.61" y2="61.61"/><line style="stroke:#E7E7E7;stroke-width:1;" x1="497.6" x2="489.6" y1="170" y2="170"/><line style="stroke:#E7E7E7;stroke-width:1;" x1="497.6" x2="489.6" y1="167" y2="167"/><line style="stroke:#E7E7E7;stroke-width:1;" x1="493.6" x2="493.6" y1="166" y2="174"/><text fill="#FFFFFF" font-family="sans-serif" font-size="13" lengthAdjust="spacing" textLength="10.3848" x="464.98" y="57.6769">is</text></g><!--link owners to flats--><g class="link" data-entity-1="owners" data-entity-2="flats" data-source-line="92" data-uid="lnk15" id="link_owners_flats"><path codeLine="92" d="M295.43,257.52 C295.43,275.07 295.43,270.56 295.43,290.96" fill="none" id="owners-flats" style="stroke:#E7E7E7;stroke-width:1;"/><line style="stroke:#E7E7E7;stroke-width:1;" x1="291.43" x2="299.43" y1="253.52" y2="253.52"/><line style="stroke:#E7E7E7;stroke-width:1;" x1="291.43" x2="299.43" y1="256.52" y2="256.52"/><line style="stroke:#E7E7E7;stroke-width:1;" x1="295.43" x2="295.43" y1="257.52" y2="249.52"/><line style="stroke:#E7E7E7;stroke-width:1;" x1="295.43" x2="301.43" y1="300.96" y2="308.96"/><line style="stroke:#E7E7E7;stroke-width:1;" x1="295.43" x2="289.43" y1="300.96" y2="308.96"/><line style="stroke:#E7E7E7;stroke-width:1;" x1="295.43" x2="295.43" y1="300.96" y2="308.96"/><ellipse cx="295.43" cy="294.96" fill="none" rx="4" ry="4" style="stroke:#E7E7E7;stroke-width:1;"/><text fill="#FFFFFF" font-family="sans-serif" font-size="13" lengthAdjust="spacing" textLength="33.5981" x="261.43" y="275.3069">owns</text></g><!--link flats to contracts--><g class="link" data-entity-1="flats" data-entity-2="contracts" data-source-line="93" data-uid="lnk16" id="link_flats_contracts"><path codeLine="93" d="M215.43,433.61 C201.27,433.61 199.38,433.61 199.38,433.61 C199.38,433.61 199.38,453.81 199.38,491.12" fill="none" id="flats-contracts" style="stroke:#E7E7E7;stroke-width:1;"/><line style="stroke:#E7E7E7;stroke-width:1;" x1="219.43" x2="219.43" y1="429.61" y2="437.61"/><line style="stroke:#E7E7E7;stroke-width:1;" x1="216.43" x2="216.43" y1="429.61" y2="437.61"/><line style="stroke:#E7E7E7;stroke-width:1;" x1="215.43" x2="223.43" y1="433.61" y2="433.61"/><line style="stroke:#E7E7E7;stroke-width:1;" x1="199.38" x2="205.38" y1="501.12" y2="509.12"/><line style="stroke:#E7E7E7;stroke-width:1;" x1="199.38" x2="193.38" y1="501.12" y2="509.12"/><line style="stroke:#E7E7E7;stroke-width:1;" x1="199.38" x2="199.38" y1="501.12" y2="509.12"/><ellipse cx="199.38" cy="495.12" fill="none" rx="4" ry="4" style="stroke:#E7E7E7;stroke-width:1;"/><text fill="#FFFFFF" font-family="sans-serif" font-size="13" lengthAdjust="spacing" textLength="22.9785" x="176.38" y="455.4069">has</text></g><!--link tenants to contracts--><g class="link" data-entity-1="tenants" data-entity-2="contracts" data-source-line="94" data-uid="lnk17" id="link_tenants_contracts"><path codeLine="94" d="M108.6,425.05 C108.6,450.97 108.6,460.2 108.6,491.23" fill="none" id="tenants-contracts" style="stroke:#E7E7E7;stroke-width:1;"/><line style="stroke:#E7E7E7;stroke-width:1;" x1="104.6" x2="112.6" y1="421.05" y2="421.05"/><line style="stroke:#E7E7E7;stroke-width:1;" x1="104.6" x2="112.6" y1="424.05" y2="424.05"/><line style="stroke:#E7E7E7;stroke-width:1;" x1="108.6" x2="108.6" y1="425.05" y2="417.05"/><line style="stroke:#E7E7E7;stroke-width:1;" x1="108.6" x2="114.6" y1="501.23" y2="509.23"/><line style="stroke:#E7E7E7;stroke-width:1;" x1="108.6" x2="102.6" y1="501.23" y2="509.23"/><line style="stroke:#E7E7E7;stroke-width:1;" x1="108.6" x2="108.6" y1="501.23" y2="509.23"/><ellipse cx="108.6" cy="495.23" fill="none" rx="4" ry="4" style="stroke:#E7E7E7;stroke-width:1;"/><text fill="#FFFFFF" font-family="sans-serif" font-size="13" lengthAdjust="spacing" textLength="33.6489" x="74.6" y="459.2069">signs</text></g><!--link contracts to payments--><g class="link" data-entity-1="contracts" data-entity-2="payments" data-source-line="95" data-uid="lnk18" id="link_contracts_payments"><path codeLine="95" d="M108.6,657.75 C108.6,679.82 108.6,678.02 108.6,699.48" fill="none" id="contracts-payments" style="stroke:#E7E7E7;stroke-width:1;"/><line style="stroke:#E7E7E7;stroke-width:1;" x1="104.6" x2="112.6" y1="653.75" y2="653.75"/><line style="stroke:#E7E7E7;stroke-width:1;" x1="104.6" x2="112.6" y1="656.75" y2="656.75"/><line style="stroke:#E7E7E7;stroke-width:1;" x1="108.6" x2="108.6" y1="657.75" y2="649.75"/><line style="stroke:#E7E7E7;stroke-width:1;" x1="108.6" x2="114.6" y1="709.48" y2="717.48"/><line style="stroke:#E7E7E7;stroke-width:1;" x1="108.6" x2="102.6" y1="709.48" y2="717.48"/><line style="stroke:#E7E7E7;stroke-width:1;" x1="108.6" x2="108.6" y1="709.48" y2="717.48"/><ellipse cx="108.6" cy="703.48" fill="none" rx="4" ry="4" style="stroke:#E7E7E7;stroke-width:1;"/><text fill="#FFFFFF" font-family="sans-serif" font-size="13" lengthAdjust="spacing" textLength="50.6733" x="57.6" y="679.6869">triggers</text></g><!--link flats to requests--><g class="link" data-entity-1="flats" data-entity-2="requests" data-source-line="96" data-uid="lnk19" id="link_flats_requests"><path codeLine="96" d="M333.38,457.67 C333.38,476.93 333.38,471.8 333.38,491.07" fill="none" id="flats-requests" style="stroke:#E7E7E7;stroke-width:1;"/><line style="stroke:#E7E7E7;stroke-width:1;" x1="329.38" x2="337.38" y1="453.67" y2="453.67"/><line style="stroke:#E7E7E7;stroke-width:1;" x1="329.38" x2="337.38" y1="456.67" y2="456.67"/><line style="stroke:#E7E7E7;stroke-width:1;" x1="333.38" x2="333.38" y1="457.67" y2="449.67"/><line style="stroke:#E7E7E7;stroke-width:1;" x1="333.38" x2="339.38" y1="501.07" y2="509.07"/><line style="stroke:#E7E7E7;stroke-width:1;" x1="333.38" x2="327.38" y1="501.07" y2="509.07"/><line style="stroke:#E7E7E7;stroke-width:1;" x1="333.38" x2="333.38" y1="501.07" y2="509.07"/><ellipse cx="333.38" cy="495.07" fill="none" rx="4" ry="4" style="stroke:#E7E7E7;stroke-width:1;"/><text fill="#FFFFFF" font-family="sans-serif" font-size="13" lengthAdjust="spacing" textLength="54.5645" x="278.38" y="475.4369">receives</text></g><!--link tenants to requests--><g class="link" data-entity-1="tenants" data-entity-2="requests" data-source-line="97" data-uid="lnk20" id="link_tenants_requests"><path codeLine="97" d="M197.05,379.61 C213.01,379.61 216.96,379.61 216.96,379.61 C216.96,379.61 216.96,579.61 216.96,579.61 C216.96,579.61 210.62,579.61 226.84,579.61" fill="none" id="tenants-requests" style="stroke:#E7E7E7;stroke-width:1;"/><line style="stroke:#E7E7E7;stroke-width:1;" x1="193.05" x2="193.05" y1="383.61" y2="375.61"/><line style="stroke:#E7E7E7;stroke-width:1;" x1="196.05" x2="196.05" y1="383.61" y2="375.61"/><line style="stroke:#E7E7E7;stroke-width:1;" x1="197.05" x2="189.05" y1="379.61" y2="379.61"/><line style="stroke:#E7E7E7;stroke-width:1;" x1="236.84" x2="244.84" y1="579.61" y2="573.61"/><line style="stroke:#E7E7E7;stroke-width:1;" x1="236.84" x2="244.84" y1="579.61" y2="585.61"/><line style="stroke:#E7E7E7;stroke-width:1;" x1="236.84" x2="244.84" y1="579.61" y2="579.61"/><ellipse cx="230.84" cy="579.61" fill="none" rx="4" ry="4" style="stroke:#E7E7E7;stroke-width:1;"/><text fill="#FFFFFF" font-family="sans-serif" font-size="13" lengthAdjust="spacing" textLength="48.3247" x="167.96" y="475.6669">creates</text></g><!--link requests to service_actions--><g class="link" data-entity-1="requests" data-entity-2="service_actions" data-source-line="98" data-uid="lnk21" id="link_requests_service_actions"><path codeLine="98" d="M423.97,657.75 C423.97,677.01 423.97,671.88 423.97,691.14" fill="none" id="requests-service_actions" style="stroke:#E7E7E7;stroke-width:1;"/><line style="stroke:#E7E7E7;stroke-width:1;" x1="419.97" x2="427.97" y1="653.75" y2="653.75"/><line style="stroke:#E7E7E7;stroke-width:1;" x1="419.97" x2="427.97" y1="656.75" y2="656.75"/><line style="stroke:#E7E7E7;stroke-width:1;" x1="423.97" x2="423.97" y1="657.75" y2="649.75"/><line style="stroke:#E7E7E7;stroke-width:1;" x1="423.97" x2="429.97" y1="701.14" y2="709.14"/><line style="stroke:#E7E7E7;stroke-width:1;" x1="423.97" x2="417.97" y1="701.14" y2="709.14"/><line style="stroke:#E7E7E7;stroke-width:1;" x1="423.97" x2="423.97" y1="701.14" y2="709.14"/><ellipse cx="423.97" cy="695.14" fill="none" rx="4" ry="4" style="stroke:#E7E7E7;stroke-width:1;"/><text fill="#FFFFFF" font-family="sans-serif" font-size="13" lengthAdjust="spacing" textLength="59.8203" x="363.97" y="675.5169">results in</text></g><!--link employees to service_actions--><g class="link" data-entity-1="employees" data-entity-2="service_actions" data-source-line="99" data-uid="lnk22" id="link_employees_service_actions"><path codeLine="99" d="M492.75,257.61 C492.75,351.34 492.75,570.11 492.75,691.39" fill="none" id="employees-service_actions" style="stroke:#E7E7E7;stroke-width:1;"/><line style="stroke:#E7E7E7;stroke-width:1;" x1="488.75" x2="496.75" y1="253.61" y2="253.61"/><line style="stroke:#E7E7E7;stroke-width:1;" x1="488.75" x2="496.75" y1="256.61" y2="256.61"/><line style="stroke:#E7E7E7;stroke-width:1;" x1="492.75" x2="492.75" y1="257.61" y2="249.61"/><line style="stroke:#E7E7E7;stroke-width:1;" x1="492.75" x2="498.75" y1="701.39" y2="709.39"/><line style="stroke:#E7E7E7;stroke-width:1;" x1="492.75" x2="486.75" y1="701.39" y2="709.39"/><line style="stroke:#E7E7E7;stroke-width:1;" x1="492.75" x2="492.75" y1="701.39" y2="709.39"/><ellipse cx="492.75" cy="695.39" fill="none" rx="4" ry="4" style="stroke:#E7E7E7;stroke-width:1;"/><text fill="#FFFFFF" font-family="sans-serif" font-size="13" lengthAdjust="spacing" textLength="72.6362" x="419.75" y="475.5669">handled by</text></g><!--link service_companies to service_actions--><g class="link" data-entity-1="service_companies" data-entity-2="service_actions" data-source-line="100" data-uid="lnk23" id="link_service_companies_service_actions"><path codeLine="100" d="M561.38,641.64 C561.38,664.9 561.38,666.39 561.38,691.2" fill="none" id="service_companies-service_actions" style="stroke:#E7E7E7;stroke-width:1;"/><line style="stroke:#E7E7E7;stroke-width:1;" x1="557.38" x2="565.38" y1="637.64" y2="637.64"/><line style="stroke:#E7E7E7;stroke-width:1;" x1="557.38" x2="565.38" y1="640.64" y2="640.64"/><line style="stroke:#E7E7E7;stroke-width:1;" x1="561.38" x2="561.38" y1="641.64" y2="633.64"/><line style="stroke:#E7E7E7;stroke-width:1;" x1="561.38" x2="567.38" y1="701.2" y2="709.2"/><line style="stroke:#E7E7E7;stroke-width:1;" x1="561.38" x2="555.38" y1="701.2" y2="709.2"/><line style="stroke:#E7E7E7;stroke-width:1;" x1="561.38" x2="561.38" y1="701.2" y2="709.2"/><ellipse cx="561.38" cy="695.2" fill="none" rx="4" ry="4" style="stroke:#E7E7E7;stroke-width:1;"/><text fill="#FFFFFF" font-family="sans-serif" font-size="13" lengthAdjust="spacing" textLength="77.4351" x="483.38" y="667.4869">provided by</text></g><!--SRC=[hLN9Zjim3BtxAmHVsYaQO3g0KI2VqHym69cDXR6MId8AOz9_hrQlygcz9EAYnqTIf7lM8Q5Cqm4hyyw40WsS34oWdHGIgMqlgmg5PNOYjK9jf30r0KFIcNnKX7o9GiiwSYLYv3VKJdkvk1y179to0Phse3z_UtrzSLham8QZMlLIhBtVdFRF4bx-5YvEY1wFCNWubsBVGBotGAaSXLsXDbjKYmA4ZR3f776ZK4nAMZHhdaspWKIk1ZaXHj1PYh1PB05hEU0vqvy399xX5E7yiGG5NQVH75WICWfcs-WxNt8Dy2RG28kk-Vhs4ZX9RXPjq1rBlg99fR0QQA8wIv5k5akK2waKUs0iQDjsO7sj_9z_KQBRQRJZqm9FpK_il_kSLbmLJ1npzxEGtdIKIaHFaiWtjZoA548ITlHrJGEmeMLGFnZ5bagkGB3qa0xQN58lJcMYqVG_fr3Zhn5DAbaM8fCa_KjlEpHKCsMP59j12Cmo_hR0kqesnKgwRh6ykdQwo3qAnQ4iPdKonkLc9F0jRxz5zZawvf_83tJ5yinwfaoL5-tpURaydtdpNKdDJBqtvlrLjYwBADch1ERjyYDjbMjOjCuQnMHRnjZPUt3c7AlaODZT8oowv3HFcFEncjtlVfzl0yqlwkgV6aNsm6EmjHDrIyjwdrcPdFPj3e1c79m74tMrLEFSlmVH3TYHsrHNn-axlwUqVBWlQxZu5m00]--></g></svg>