<svg xmlns="http://www.w3.org/2000/svg" xmlns:xlink="http://www.w3.org/1999/xlink" contentStyleType="text/css" data-diagram-type="CLASS" height="705px" preserveAspectRatio="none" style="width:977px;height:705px;background:#1B1B1B;" version="1.1" viewBox="0 0 977 705" width="977px" zoomAndPan="magnify"><defs/><g><rect fill="#1B1B1B" height="705" style="stroke:none;stroke-width:1;" width="977" x="0" y="0"/><!--class owners--><g class="entity" data-entity="owners" data-source-line="5" data-uid="ent0002" id="entity_owners"><rect fill="#313139" height="107.4844" rx="2.5" ry="2.5" style="stroke:#E7E7E7;stroke-width:0.5;" width="206.749" x="635.22" y="7"/><text fill="#FFFFFF" font-family="sans-serif" font-size="14" lengthAdjust="spacing" textLength="50.5518" x="713.3186" y="24.9951">owners</text><line style="stroke:#E7E7E7;stroke-width:0.5;" x1="636.22" x2="840.969" y1="33.2969" y2="33.2969"/><ellipse cx="646.22" cy="46.9453" fill="#000000" rx="3" ry="3" style="stroke:#000000;stroke-width:1;"/><text fill="#FFFFFF" font-family="sans-serif" font-size="14" lengthAdjust="spacing" textLength="131.291" x="655.22" y="50.292">owner_id : number</text><line style="stroke:#E7E7E7;stroke-width:1;" x1="636.22" x2="840.969" y1="57.5938" y2="57.5938"/><text fill="#FFFFFF" font-family="sans-serif" font-size="14" lengthAdjust="spacing" textLength="194.749" x="641.22" y="74.5889">owner_name : varchar(100)</text><text fill="#FFFFFF" font-family="sans-serif" font-size="14" lengthAdjust="spacing" textLength="143.3975" x="641.22" y="90.8857">email : varchar(100)</text><text fill="#FFFFFF" font-family="sans-serif" font-size="14" lengthAdjust="spacing" textLength="139.6924" x="641.22" y="107.1826">phone : varchar(20)</text></g><!--class tenants--><g class="entity" data-entity="tenants" data-source-line="13" data-uid="ent0003" id="entity_tenants"><rect fill="#313139" height="107.4844" rx="2.5" ry="2.5" style="stroke:#E7E7E7;stroke-width:0.5;" width="209.4082" x="272.89" y="182.63"/><text fill="#FFFFFF" font-family="sans-serif" font-size="14" lengthAdjust="spacing" textLength="53.2109" x="350.9886" y="200.6251">tenants</text><line style="stroke:#E7E7E7;stroke-width:0.5;" x1="273.89" x2="481.2982" y1="208.9269" y2="208.9269"/><ellipse cx="283.89" cy="222.5753" fill="#000000" rx="3" ry="3" style="stroke:#000000;stroke-width:1;"/><text fill="#FFFFFF" font-family="sans-serif" font-size="14" lengthAdjust="spacing" textLength="133.9502" x="292.89" y="225.922">tenant_id : number</text><line style="stroke:#E7E7E7;stroke-width:1;" x1="273.89" x2="481.2982" y1="233.2238" y2="233.2238"/><text fill="#FFFFFF" font-family="sans-serif" font-size="14" lengthAdjust="spacing" textLength="197.4082" x="278.89" y="250.2189">tenant_name : varchar(100)</text><text fill="#FFFFFF" font-family="sans-serif" font-size="14" lengthAdjust="spacing" textLength="143.3975" x="278.89" y="266.5157">email : varchar(100)</text><text fill="#FFFFFF" font-family="sans-serif" font-size="14" lengthAdjust="spacing" textLength="139.6924" x="278.89" y="282.8126">phone : varchar(20)</text></g><!--class flats--><g class="entity" data-entity="flats" data-source-line="21" data-uid="ent0004" id="entity_flats"><rect fill="#313139" height="123.7813" rx="2.5" ry="2.5" style="stroke:#E7E7E7;stroke-width:0.5;" width="172.0977" x="652.55" y="174.48"/><text fill="#FFFFFF" font-family="sans-serif" font-size="14" lengthAdjust="spacing" textLength="30.1807" x="723.5085" y="192.4751">flats</text><line style="stroke:#E7E7E7;stroke-width:0.5;" x1="653.55" x2="823.6477" y1="200.7769" y2="200.7769"/><ellipse cx="663.55" cy="214.4253" fill="#000000" rx="3" ry="3" style="stroke:#000000;stroke-width:1;"/><text fill="#FFFFFF" font-family="sans-serif" font-size="14" lengthAdjust="spacing" textLength="110.9199" x="672.55" y="217.772">flat_id : number</text><line style="stroke:#E7E7E7;stroke-width:1;" x1="653.55" x2="823.6477" y1="225.0737" y2="225.0737"/><text fill="#FFFFFF" font-family="sans-serif" font-size="14" lengthAdjust="spacing" textLength="160.0977" x="658.55" y="242.0689">address : varchar(255)</text><text fill="#FFFFFF" font-family="sans-serif" font-size="14" lengthAdjust="spacing" textLength="132.9727" x="658.55" y="258.3657">area : number(5,2)</text><text fill="#FFFFFF" font-family="sans-serif" font-size="14" lengthAdjust="spacing" textLength="131.9063" x="658.55" y="274.6626">rooms : number(2)</text><text fill="#FFFFFF" font-family="sans-serif" font-size="14" lengthAdjust="spacing" textLength="131.291" x="658.55" y="290.9595">owner_id : number</text></g><!--class contracts--><g class="entity" data-entity="contracts" data-source-line="30" data-uid="ent0005" id="entity_contracts"><rect fill="#313139" height="140.0781" rx="2.5" ry="2.5" style="stroke:#E7E7E7;stroke-width:0.5;" width="203.1943" x="7" y="358.26"/><text fill="#FFFFFF" font-family="sans-serif" font-size="14" lengthAdjust="spacing" textLength="65.4404" x="75.877" y="376.2551">contracts</text><line style="stroke:#E7E7E7;stroke-width:0.5;" x1="8" x2="209.1943" y1="384.5569" y2="384.5569"/><ellipse cx="18" cy="398.2053" fill="#000000" rx="3" ry="3" style="stroke:#000000;stroke-width:1;"/><text fill="#FFFFFF" font-family="sans-serif" font-size="14" lengthAdjust="spacing" textLength="146.1797" x="27" y="401.552">contract_id : number</text><line style="stroke:#E7E7E7;stroke-width:1;" x1="8" x2="209.1943" y1="408.8537" y2="408.8537"/><text fill="#FFFFFF" font-family="sans-serif" font-size="14" lengthAdjust="spacing" textLength="110.9199" x="13" y="425.8489">flat_id : number</text><text fill="#FFFFFF" font-family="sans-serif" font-size="14" lengthAdjust="spacing" textLength="133.9502" x="13" y="442.1457">tenant_id : number</text><text fill="#FFFFFF" font-family="sans-serif" font-size="14" lengthAdjust="spacing" textLength="116.3613" x="13" y="458.4426">start_date : date</text><text fill="#FFFFFF" font-family="sans-serif" font-size="14" lengthAdjust="spacing" textLength="110.127" x="13" y="474.7395">end_date : date</text><text fill="#FFFFFF" font-family="sans-serif" font-size="14" lengthAdjust="spacing" textLength="191.1943" x="13" y="491.0364">rent_amount : number(7,2)</text></g><!--class payments--><g class="entity" data-entity="payments" data-source-line="40" data-uid="ent0006" id="entity_payments"><rect fill="#313139" height="123.7813" rx="2.5" ry="2.5" style="stroke:#E7E7E7;stroke-width:0.5;" width="176.3975" x="20.4" y="566.49"/><text fill="#FFFFFF" font-family="sans-serif" font-size="14" lengthAdjust="spacing" textLength="69.6582" x="73.7696" y="584.4851">payments</text><line style="stroke:#E7E7E7;stroke-width:0.5;" x1="21.4" x2="195.7975" y1="592.7869" y2="592.7869"/><ellipse cx="31.4" cy="606.4353" fill="#000000" rx="3" ry="3" style="stroke:#000000;stroke-width:1;"/><text fill="#FFFFFF" font-family="sans-serif" font-size="14" lengthAdjust="spacing" textLength="150.3975" x="40.4" y="609.782">payment_id : number</text><line style="stroke:#E7E7E7;stroke-width:1;" x1="21.4" x2="195.7975" y1="617.0837" y2="617.0837"/><text fill="#FFFFFF" font-family="sans-serif" font-size="14" lengthAdjust="spacing" textLength="146.1797" x="26.4" y="634.0789">contract_id : number</text><text fill="#FFFFFF" font-family="sans-serif" font-size="14" lengthAdjust="spacing" textLength="146.1182" x="26.4" y="650.3757">payment_date : date</text><text fill="#FFFFFF" font-family="sans-serif" font-size="14" lengthAdjust="spacing" textLength="155.4629" x="26.4" y="666.6726">amount : number(7,2)</text><text fill="#FFFFFF" font-family="sans-serif" font-size="14" lengthAdjust="spacing" textLength="116.2793" x="26.4" y="682.9695">status : char(10)</text></g><!--class service_companies--><g class="entity" data-entity="service_companies" data-source-line="49" data-uid="ent0007" id="entity_service_companies"><rect fill="#313139" height="107.4844" rx="2.5" ry="2.5" style="stroke:#E7E7E7;stroke-width:0.5;" width="228.0156" x="245.59" y="374.56"/><text fill="#FFFFFF" font-family="sans-serif" font-size="14" lengthAdjust="spacing" textLength="133.1846" x="293.0055" y="392.5551">service_companies</text><line style="stroke:#E7E7E7;stroke-width:0.5;" x1="246.59" x2="472.6056" y1="400.8569" y2="400.8569"/><ellipse cx="256.59" cy="414.5053" fill="#000000" rx="3" ry="3" style="stroke:#000000;stroke-width:1;"/><text fill="#FFFFFF" font-family="sans-serif" font-size="14" lengthAdjust="spacing" textLength="152.5576" x="265.59" y="417.852">company_id : number</text><line style="stroke:#E7E7E7;stroke-width:1;" x1="246.59" x2="472.6056" y1="425.1537" y2="425.1537"/><text fill="#FFFFFF" font-family="sans-serif" font-size="14" lengthAdjust="spacing" textLength="216.0156" x="251.59" y="442.1489">company_name : varchar(100)</text><text fill="#FFFFFF" font-family="sans-serif" font-size="14" lengthAdjust="spacing" textLength="143.3975" x="251.59" y="458.4457">email : varchar(100)</text><text fill="#FFFFFF" font-family="sans-serif" font-size="14" lengthAdjust="spacing" textLength="139.6924" x="251.59" y="474.7426">phone : varchar(20)</text></g><!--class employees--><g class="entity" data-entity="employees" data-source-line="57" data-uid="ent0008" id="entity_employees"><rect fill="#313139" height="107.4844" rx="2.5" ry="2.5" style="stroke:#E7E7E7;stroke-width:0.5;" width="232.5957" x="508.3" y="374.56"/><text fill="#FFFFFF" font-family="sans-serif" font-size="14" lengthAdjust="spacing" textLength="76.3984" x="586.3986" y="392.5551">employees</text><line style="stroke:#E7E7E7;stroke-width:0.5;" x1="509.3" x2="739.8957" y1="400.8569" y2="400.8569"/><ellipse cx="519.3" cy="414.5053" fill="#000000" rx="3" ry="3" style="stroke:#000000;stroke-width:1;"/><text fill="#FFFFFF" font-family="sans-serif" font-size="14" lengthAdjust="spacing" textLength="157.1377" x="528.3" y="417.852">employee_id : number</text><line style="stroke:#E7E7E7;stroke-width:1;" x1="509.3" x2="739.8957" y1="425.1537" y2="425.1537"/><text fill="#FFFFFF" font-family="sans-serif" font-size="14" lengthAdjust="spacing" textLength="220.5957" x="514.3" y="442.1489">employee_name : varchar(100)</text><text fill="#FFFFFF" font-family="sans-serif" font-size="14" lengthAdjust="spacing" textLength="122.7051" x="514.3" y="458.4457">role : varchar(50)</text><text fill="#FFFFFF" font-family="sans-serif" font-size="14" lengthAdjust="spacing" textLength="143.3975" x="514.3" y="474.7426">email : varchar(100)</text></g><!--class requests--><g class="entity" data-entity="requests" data-source-line="65" data-uid="ent0009" id="entity_requests"><rect fill="#313139" height="140.0781" rx="2.5" ry="2.5" style="stroke:#E7E7E7;stroke-width:0.5;" width="194.6289" x="776.28" y="358.26"/><text fill="#FFFFFF" font-family="sans-serif" font-size="14" lengthAdjust="spacing" textLength="60.8193" x="843.1848" y="376.2551">requests</text><line style="stroke:#E7E7E7;stroke-width:0.5;" x1="777.28" x2="969.9089" y1="384.5569" y2="384.5569"/><ellipse cx="787.28" cy="398.2053" fill="#000000" rx="3" ry="3" style="stroke:#000000;stroke-width:1;"/><text fill="#FFFFFF" font-family="sans-serif" font-size="14" lengthAdjust="spacing" textLength="141.5586" x="796.28" y="401.552">request_id : number</text><line style="stroke:#E7E7E7;stroke-width:1;" x1="777.28" x2="969.9089" y1="408.8537" y2="408.8537"/><text fill="#FFFFFF" font-family="sans-serif" font-size="14" lengthAdjust="spacing" textLength="110.9199" x="782.28" y="425.8489">flat_id : number</text><text fill="#FFFFFF" font-family="sans-serif" font-size="14" lengthAdjust="spacing" textLength="133.9502" x="782.28" y="442.1457">tenant_id : number</text><text fill="#FFFFFF" font-family="sans-serif" font-size="14" lengthAdjust="spacing" textLength="182.6289" x="782.28" y="458.4426">description : varchar(500)</text><text fill="#FFFFFF" font-family="sans-serif" font-size="14" lengthAdjust="spacing" textLength="137.2793" x="782.28" y="474.7395">request_date : date</text><text fill="#FFFFFF" font-family="sans-serif" font-size="14" lengthAdjust="spacing" textLength="116.2793" x="782.28" y="491.0364">status : char(15)</text></g><!--class service_actions--><g class="entity" data-entity="service_actions" data-source-line="75" data-uid="ent0010" id="entity_service_actions"><rect fill="#313139" height="140.0781" rx="2.5" ry="2.5" style="stroke:#E7E7E7;stroke-width:0.5;" width="169.1377" x="540.03" y="558.34"/><text fill="#FFFFFF" font-family="sans-serif" font-size="14" lengthAdjust="spacing" textLength="107.5361" x="570.8308" y="576.3351">service_actions</text><line style="stroke:#E7E7E7;stroke-width:0.5;" x1="541.03" x2="708.1677" y1="584.6369" y2="584.6369"/><ellipse cx="551.03" cy="598.2853" fill="#000000" rx="3" ry="3" style="stroke:#000000;stroke-width:1;"/><text fill="#FFFFFF" font-family="sans-serif" font-size="14" lengthAdjust="spacing" textLength="131.127" x="560.03" y="601.632">action_id : number</text><line style="stroke:#E7E7E7;stroke-width:1;" x1="541.03" x2="708.1677" y1="608.9337" y2="608.9337"/><text fill="#FFFFFF" font-family="sans-serif" font-size="14" lengthAdjust="spacing" textLength="141.5586" x="546.03" y="625.9289">request_id : number</text><text fill="#FFFFFF" font-family="sans-serif" font-size="14" lengthAdjust="spacing" textLength="157.1377" x="546.03" y="642.2257">employee_id : number</text><text fill="#FFFFFF" font-family="sans-serif" font-size="14" lengthAdjust="spacing" textLength="152.5576" x="546.03" y="658.5226">company_id : number</text><text fill="#FFFFFF" font-family="sans-serif" font-size="14" lengthAdjust="spacing" textLength="126.8477" x="546.03" y="674.8195">action_date : date</text><text fill="#FFFFFF" font-family="sans-serif" font-size="14" lengthAdjust="spacing" textLength="136.3291" x="546.03" y="691.1164">note : varchar(500)</text></g><!--link owners to flats--><g class="link" data-entity-1="owners" data-entity-2="flats" data-source-line="86" data-uid="lnk11" id="link_owners_flats"><path codeLine="86" d="M738.6,122.87 C738.6,141.62 738.6,136.78 738.6,156.13" fill="none" id="owners-flats" style="stroke:#E7E7E7;stroke-width:1;"/><line style="stroke:#E7E7E7;stroke-width:1;" x1="734.6" x2="742.6" y1="118.87" y2="118.87"/><line style="stroke:#E7E7E7;stroke-width:1;" x1="734.6" x2="742.6" y1="121.87" y2="121.87"/><line style="stroke:#E7E7E7;stroke-width:1;" x1="738.6" x2="738.6" y1="122.87" y2="114.87"/><line style="stroke:#E7E7E7;stroke-width:1;" x1="738.6" x2="744.6" y1="166.13" y2="174.13"/><line style="stroke:#E7E7E7;stroke-width:1;" x1="738.6" x2="732.6" y1="166.13" y2="174.13"/><line style="stroke:#E7E7E7;stroke-width:1;" x1="738.6" x2="738.6" y1="166.13" y2="174.13"/><ellipse cx="738.6" cy="160.13" fill="none" rx="4" ry="4" style="stroke:#E7E7E7;stroke-width:1;"/><text fill="#FFFFFF" font-family="sans-serif" font-size="13" lengthAdjust="spacing" textLength="33.5981" x="704.6" y="140.5669">owns</text></g><!--link flats to contracts--><g class="link" data-entity-1="flats" data-entity-2="contracts" data-source-line="87" data-uid="lnk12" id="link_flats_contracts"><path codeLine="87" d="M696.72,306.76 C696.72,342.14 696.72,371.42 696.72,371.42 C696.72,371.42 396.7,371.42 228.37,371.42" fill="none" id="flats-contracts" style="stroke:#E7E7E7;stroke-width:1;"/><line style="stroke:#E7E7E7;stroke-width:1;" x1="692.72" x2="700.72" y1="302.76" y2="302.76"/><line style="stroke:#E7E7E7;stroke-width:1;" x1="692.72" x2="700.72" y1="305.76" y2="305.76"/><line style="stroke:#E7E7E7;stroke-width:1;" x1="696.72" x2="696.72" y1="306.76" y2="298.76"/><line style="stroke:#E7E7E7;stroke-width:1;" x1="218.37" x2="210.37" y1="371.42" y2="377.42"/><line style="stroke:#E7E7E7;stroke-width:1;" x1="218.37" x2="210.37" y1="371.42" y2="365.42"/><line style="stroke:#E7E7E7;stroke-width:1;" x1="218.37" x2="210.37" y1="371.42" y2="371.42"/><ellipse cx="224.37" cy="371.42" fill="none" rx="4" ry="4" style="stroke:#E7E7E7;stroke-width:1;"/><text fill="#FFFFFF" font-family="sans-serif" font-size="13" lengthAdjust="spacing" textLength="22.9785" x="466.88" y="367.4869">has</text></g><!--link tenants to contracts--><g class="link" data-entity-1="tenants" data-entity-2="contracts" data-source-line="88" data-uid="lnk13" id="link_tenants_contracts"><path codeLine="88" d="M373.25,298.39 C373.25,334.13 373.25,366.42 373.25,366.42 C373.25,366.42 303.09,366.42 228.54,366.42" fill="none" id="tenants-contracts" style="stroke:#E7E7E7;stroke-width:1;"/><line style="stroke:#E7E7E7;stroke-width:1;" x1="369.25" x2="377.25" y1="294.39" y2="294.39"/><line style="stroke:#E7E7E7;stroke-width:1;" x1="369.25" x2="377.25" y1="297.39" y2="297.39"/><line style="stroke:#E7E7E7;stroke-width:1;" x1="373.25" x2="373.25" y1="298.39" y2="290.39"/><line style="stroke:#E7E7E7;stroke-width:1;" x1="218.54" x2="210.54" y1="366.42" y2="372.42"/><line style="stroke:#E7E7E7;stroke-width:1;" x1="218.54" x2="210.54" y1="366.42" y2="360.42"/><line style="stroke:#E7E7E7;stroke-width:1;" x1="218.54" x2="210.54" y1="366.42" y2="366.42"/><ellipse cx="224.54" cy="366.42" fill="none" rx="4" ry="4" style="stroke:#E7E7E7;stroke-width:1;"/><text fill="#FFFFFF" font-family="sans-serif" font-size="13" lengthAdjust="spacing" textLength="33.6489" x="295.91" y="362.4869">signs</text></g><!--link contracts to payments--><g class="link" data-entity-1="contracts" data-entity-2="payments" data-source-line="89" data-uid="lnk14" id="link_contracts_payments"><path codeLine="89" d="M108.6,506.56 C108.6,528.63 108.6,526.83 108.6,548.29" fill="none" id="contracts-payments" style="stroke:#E7E7E7;stroke-width:1;"/><line style="stroke:#E7E7E7;stroke-width:1;" x1="104.6" x2="112.6" y1="502.56" y2="502.56"/><line style="stroke:#E7E7E7;stroke-width:1;" x1="104.6" x2="112.6" y1="505.56" y2="505.56"/><line style="stroke:#E7E7E7;stroke-width:1;" x1="108.6" x2="108.6" y1="506.56" y2="498.56"/><line style="stroke:#E7E7E7;stroke-width:1;" x1="108.6" x2="114.6" y1="558.29" y2="566.29"/><line style="stroke:#E7E7E7;stroke-width:1;" x1="108.6" x2="102.6" y1="558.29" y2="566.29"/><line style="stroke:#E7E7E7;stroke-width:1;" x1="108.6" x2="108.6" y1="558.29" y2="566.29"/><ellipse cx="108.6" cy="552.29" fill="none" rx="4" ry="4" style="stroke:#E7E7E7;stroke-width:1;"/><text fill="#FFFFFF" font-family="sans-serif" font-size="13" lengthAdjust="spacing" textLength="50.6733" x="57.6" y="528.4969">triggers</text></g><!--link flats to requests--><g class="link" data-entity-1="flats" data-entity-2="requests" data-source-line="90" data-uid="lnk15" id="link_flats_requests"><path codeLine="90" d="M800.46,306.69 C800.46,325.62 800.46,320.56 800.46,339.99" fill="none" id="flats-requests" style="stroke:#E7E7E7;stroke-width:1;"/><line style="stroke:#E7E7E7;stroke-width:1;" x1="796.46" x2="804.46" y1="302.69" y2="302.69"/><line style="stroke:#E7E7E7;stroke-width:1;" x1="796.46" x2="804.46" y1="305.69" y2="305.69"/><line style="stroke:#E7E7E7;stroke-width:1;" x1="800.46" x2="800.46" y1="306.69" y2="298.69"/><line style="stroke:#E7E7E7;stroke-width:1;" x1="800.46" x2="806.46" y1="349.99" y2="357.99"/><line style="stroke:#E7E7E7;stroke-width:1;" x1="800.46" x2="794.46" y1="349.99" y2="357.99"/><line style="stroke:#E7E7E7;stroke-width:1;" x1="800.46" x2="800.46" y1="349.99" y2="357.99"/><ellipse cx="800.46" cy="343.99" fill="none" rx="4" ry="4" style="stroke:#E7E7E7;stroke-width:1;"/><text fill="#FFFFFF" font-family="sans-serif" font-size="13" lengthAdjust="spacing" textLength="28.1201" x="771.46" y="324.4069">gets</text></g><!--link tenants to requests--><g class="link" data-entity-1="tenants" data-entity-2="requests" data-source-line="91" data-uid="lnk16" id="link_tenants_requests"><path codeLine="91" d="M477.95,298.56 C477.95,332.72 477.95,362.42 477.95,362.42 C477.95,362.42 640.64,362.42 757.8,362.42" fill="none" id="tenants-requests" style="stroke:#E7E7E7;stroke-width:1;"/><line style="stroke:#E7E7E7;stroke-width:1;" x1="473.95" x2="481.95" y1="294.56" y2="294.56"/><line style="stroke:#E7E7E7;stroke-width:1;" x1="473.95" x2="481.95" y1="297.56" y2="297.56"/><line style="stroke:#E7E7E7;stroke-width:1;" x1="477.95" x2="477.95" y1="298.56" y2="290.56"/><line style="stroke:#E7E7E7;stroke-width:1;" x1="767.8" x2="775.8" y1="362.42" y2="356.42"/><line style="stroke:#E7E7E7;stroke-width:1;" x1="767.8" x2="775.8" y1="362.42" y2="368.42"/><line style="stroke:#E7E7E7;stroke-width:1;" x1="767.8" x2="775.8" y1="362.42" y2="362.42"/><ellipse cx="761.8" cy="362.42" fill="none" rx="4" ry="4" style="stroke:#E7E7E7;stroke-width:1;"/><text fill="#FFFFFF" font-family="sans-serif" font-size="13" lengthAdjust="spacing" textLength="48.3247" x="541.95" y="358.4869">creates</text></g><!--link requests to service_actions--><g class="link" data-entity-1="requests" data-entity-2="service_actions" data-source-line="92" data-uid="lnk17" id="link_requests_service_actions"><path codeLine="92" d="M768.1,490.42 C708.95,490.42 652.79,490.42 652.79,490.42 C652.79,490.42 652.79,506.11 652.79,540.19" fill="none" id="requests-service_actions" style="stroke:#E7E7E7;stroke-width:1;"/><line style="stroke:#E7E7E7;stroke-width:1;" x1="772.1" x2="772.1" y1="486.42" y2="494.42"/><line style="stroke:#E7E7E7;stroke-width:1;" x1="769.1" x2="769.1" y1="486.42" y2="494.42"/><line style="stroke:#E7E7E7;stroke-width:1;" x1="768.1" x2="776.1" y1="490.42" y2="490.42"/><line style="stroke:#E7E7E7;stroke-width:1;" x1="652.79" x2="658.79" y1="550.19" y2="558.19"/><line style="stroke:#E7E7E7;stroke-width:1;" x1="652.79" x2="646.79" y1="550.19" y2="558.19"/><line style="stroke:#E7E7E7;stroke-width:1;" x1="652.79" x2="652.79" y1="550.19" y2="558.19"/><ellipse cx="652.79" cy="544.19" fill="none" rx="4" ry="4" style="stroke:#E7E7E7;stroke-width:1;"/><text fill="#FFFFFF" font-family="sans-serif" font-size="13" lengthAdjust="spacing" textLength="59.8203" x="620.56" y="503.4869">results in</text></g><!--link employees to service_actions--><g class="link" data-entity-1="employees" data-entity-2="service_actions" data-source-line="93" data-uid="lnk18" id="link_employees_service_actions"><path codeLine="93" d="M596.41,490.45 C596.41,513.71 596.41,515.2 596.41,540.01" fill="none" id="employees-service_actions" style="stroke:#E7E7E7;stroke-width:1;"/><line style="stroke:#E7E7E7;stroke-width:1;" x1="592.41" x2="600.41" y1="486.45" y2="486.45"/><line style="stroke:#E7E7E7;stroke-width:1;" x1="592.41" x2="600.41" y1="489.45" y2="489.45"/><line style="stroke:#E7E7E7;stroke-width:1;" x1="596.41" x2="596.41" y1="490.45" y2="482.45"/><line style="stroke:#E7E7E7;stroke-width:1;" x1="596.41" x2="602.41" y1="550.01" y2="558.01"/><line style="stroke:#E7E7E7;stroke-width:1;" x1="596.41" x2="590.41" y1="550.01" y2="558.01"/><line style="stroke:#E7E7E7;stroke-width:1;" x1="596.41" x2="596.41" y1="550.01" y2="558.01"/><ellipse cx="596.41" cy="544.01" fill="none" rx="4" ry="4" style="stroke:#E7E7E7;stroke-width:1;"/><text fill="#FFFFFF" font-family="sans-serif" font-size="13" lengthAdjust="spacing" textLength="51.0796" x="544.41" y="516.2969">handles</text></g><!--link service_companies to service_actions--><g class="link" data-entity-1="service_companies" data-entity-2="service_actions" data-source-line="94" data-uid="lnk19" id="link_service_companies_service_actions"><path codeLine="94" d="M359.6,490.47 C359.6,527.69 359.6,562.42 359.6,562.42 C359.6,562.42 444.14,562.42 521.66,562.42" fill="none" id="service_companies-service_actions" style="stroke:#E7E7E7;stroke-width:1;"/><line style="stroke:#E7E7E7;stroke-width:1;" x1="355.6" x2="363.6" y1="486.47" y2="486.47"/><line style="stroke:#E7E7E7;stroke-width:1;" x1="355.6" x2="363.6" y1="489.47" y2="489.47"/><line style="stroke:#E7E7E7;stroke-width:1;" x1="359.6" x2="359.6" y1="490.47" y2="482.47"/><line style="stroke:#E7E7E7;stroke-width:1;" x1="531.66" x2="539.66" y1="562.42" y2="556.42"/><line style="stroke:#E7E7E7;stroke-width:1;" x1="531.66" x2="539.66" y1="562.42" y2="568.42"/><line style="stroke:#E7E7E7;stroke-width:1;" x1="531.66" x2="539.66" y1="562.42" y2="562.42"/><ellipse cx="525.66" cy="562.42" fill="none" rx="4" ry="4" style="stroke:#E7E7E7;stroke-width:1;"/><text fill="#FFFFFF" font-family="sans-serif" font-size="13" lengthAdjust="spacing" textLength="55.8784" x="353.65" y="558.4869">provides</text></g><!--SRC=[hPNFRjmW4CRlFCKebwHLLqeZMPNy13tt1LPJF5cZOd07l9MLzDqB2_wtngVcal1zCy2F6Sm-mdVL47YIhL4IDJJaKMa7hvP1QcJbHz765AbOQXBkbp8zCdQWbI4_zWIMVMk58ED3CZpOFuROFG0wI4Du4m2VR-EpQg06CtG_YODvEeK_AM2men2w8iiM-Udhy_Ed4ACkmEpjlhLcdVqItByBWIU3nYU4F4uCIPGWSkGZALurPeRRA174OMb_R1ecvzQhLLNS19bmpdwglhn4awtjtEBUl7rzLopI6iyeCy-i4jCaIrm5tc8HdKVsvmPzB4Zy5yjccZk70yyPEpiOlz1_YsTQiVOuTZIrRnA9DAiIwC4XfXbRZYB2xH1-Y7NDNTvWEUAhadIMjklHA4fyEtSgQPHZ6JI5FlAgKTThEr9ccbLYcMG9PewLQTZgjLiT8wvWc7uFv7B_9f5GilgVYzQGawnwhwpPa2NUlFwsstTjhOfj3LSdBBbjQlOIUn8bzFAf3ifUlXbvyIstiPxkpnZ87-47XM95ibRrJkH7zltzTB9l-QsfutFWH18vidprDRJenFGo5i9ENSBinSafyyTOWsTrkOHjjrlCtQxXGdwtnIeimxFcoOdPoYdtfQ_393VeaA2CM2xsONQBfj5XtVrtUJYbPtiDFt3k7m00]--></g></svg>